# MagicaVoxel @ Ephtracy

# group
o 

# material
mtllib Oak Trees-3.mtl
usemtl palette

# normals
vn -1 0 0
vn 1 0 0
vn 0 0 1
vn 0 0 -1
vn 0 -1 0
vn 0 1 0

# texcoords
vt 0.908203 0.5
vt 0.939453 0.5

# verts
v -1.6 2.2 0.3
v -1.6 2.2 -0.3
v -1.6 2.8 0.3
v -1.6 2.8 -0.3
v -1.5 2.2 0.4
v -1.5 2.2 0.3
v -1.5 2.2 -0.3
v -1.5 2.2 -0.4
v -1.5 2.8 0.4
v -1.5 2.8 0.3
v -1.5 2.8 -0.3
v -1.5 2.8 -0.4
v -1.5 2.9 0.3
v -1.5 2.9 -0.3
v -1.4 2.1 0.0999999
v -1.4 2.1 -0.1
v -1.4 2.2 0.0999999
v -1.4 2.2 -0.1
v -1.3 1.9 0.0999999
v -1.3 1.9 -0.1
v -1.3 2.1 0.2
v -1.3 2.1 0.0999999
v -1.3 2.1 -0.1
v -1.3 2.1 -0.2
v -1.3 2.2 0.2
v -1.3 2.2 0.0999999
v -1.3 2.2 -0.1
v -1.3 2.2 -0.2
v -1.2 1.8 0.0999999
v -1.2 1.8 -0.1
v -1.2 1.9 0.0999999
v -1.2 1.9 -0.1
v -1 1.6 0.9
v -1 1.6 -0.9
v -1 1.8 0.0999999
v -1 1.8 -0.1
v -1 2 0.0999999
v -1 2 -0.1
v -1 2.1 0.0999999
v -1 2.1 -0.1
v -1 2.2 0.4
v -1 2.2 0.0999999
v -1 2.2 -0.1
v -1 2.2 -0.4
v -1 2.8 0.4
v -1 2.8 0.3
v -1 2.8 -0.3
v -1 2.8 -0.4
v -1 2.9 0.3
v -1 2.9 -0.3
v -1 3.2 0.9
v -1 3.2 -0.9
v -0.9 1.6 1
v -0.9 1.6 0.9
v -0.9 1.6 -0.9
v -0.9 1.6 -1
v -0.9 3.2 1
v -0.9 3.2 0.9
v -0.9 3.2 -0.9
v -0.9 3.2 -1
v -0.9 3.3 0.9
v -0.9 3.3 -0.9
v -0.3 0 0.2
v -0.3 0 -0.2
v -0.3 0.5 0.2
v -0.3 0.5 -0.2
v -0.3 1.5 0.2
v -0.3 1.5 -0.2
v -0.3 1.6 0.2
v -0.3 1.6 -0.2
v -0.2 0 0.3
v -0.2 0 0.2
v -0.2 0 -0.2
v -0.2 0 -0.3
v -0.2 0.4 0.3
v -0.2 0.4 0.2
v -0.2 0.5 0.2
v -0.2 0.5 -0.2
v -0.2 0.5 -0.3
v -0.2 1.5 0.3
v -0.2 1.5 0.2
v -0.2 1.5 -0.2
v -0.2 1.5 -0.3
v -0.2 1.6 0.3
v -0.2 1.6 0.2
v -0.2 1.6 -0.2
v -0.2 1.6 -0.3
v -1.1 2 0.0999999
v -1.1 2 -0.1
v -1.1 2.1 0.2
v -1.1 2.1 0.0999999
v -1.1 2.1 -0.1
v -1.1 2.1 -0.2
v -1.1 2.2 0.2
v -1.1 2.2 0.0999999
v -1.1 2.2 -0.1
v -1.1 2.2 -0.2
v 0.2 0 0.3
v 0.2 0 0.2
v 0.2 0 -0.2
v 0.2 0 -0.3
v 0.2 0.4 0.3
v 0.2 0.4 0.2
v 0.2 0.4 -0.2
v 0.2 0.5 -0.2
v 0.2 0.5 -0.3
v 0.2 1.5 0.3
v 0.2 1.5 0.2
v 0.2 1.5 -0.2
v 0.2 1.5 -0.3
v 0.2 1.6 0.3
v 0.2 1.6 0.2
v 0.2 1.6 -0.2
v 0.2 1.6 -0.3
v 0.3 0 0.2
v 0.3 0 -0.2
v 0.3 0.4 0.2
v 0.3 0.4 -0.2
v 0.3 1.5 0.2
v 0.3 1.5 -0.2
v 0.3 1.6 0.2
v 0.3 1.6 -0.2
v 0.9 1.6 1
v 0.9 1.6 0.9
v 0.9 1.6 -0.9
v 0.9 1.6 -1
v 0.9 3.2 1
v 0.9 3.2 0.9
v 0.9 3.2 -0.9
v 0.9 3.2 -1
v 0.9 3.3 0.9
v 0.9 3.3 -0.9
v 1 1.6 0.9
v 1 1.6 -0.9
v 1 3.2 0.9
v 1 3.2 -0.9
v -0.9 1.6 1
v -0.9 3.2 1
v 0.9 1.6 1
v 0.9 3.2 1
v -1 1.6 0.9
v -1 3.2 0.9
v -0.9 1.6 0.9
v -0.9 3.2 0.9
v -0.9 3.3 0.9
v 0.9 1.6 0.9
v 0.9 3.2 0.9
v 0.9 3.3 0.9
v 1 1.6 0.9
v 1 3.2 0.9
v -1.5 2.2 0.4
v -1.5 2.8 0.4
v -1 2.2 0.4
v -1 2.8 0.4
v -1.6 2.2 0.3
v -1.6 2.8 0.3
v -1.5 2.2 0.3
v -1.5 2.8 0.3
v -1.5 2.9 0.3
v -1 2.8 0.3
v -1 2.9 0.3
v -0.2 0 0.3
v -0.2 0.4 0.3
v -0.2 1.5 0.3
v -0.2 1.6 0.3
v 0.2 0 0.3
v 0.2 0.4 0.3
v 0.2 1.5 0.3
v 0.2 1.6 0.3
v -1.3 2.1 0.2
v -1.3 2.2 0.2
v -1.1 2.1 0.2
v -1.1 2.2 0.2
v -0.3 0 0.2
v -0.3 0.5 0.2
v -0.3 1.5 0.2
v -0.3 1.6 0.2
v -0.2 0 0.2
v -0.2 0.4 0.2
v -0.2 0.5 0.2
v -0.2 1.5 0.2
v -0.2 1.6 0.2
v 0.2 0 0.2
v 0.2 0.4 0.2
v 0.2 1.5 0.2
v 0.2 1.6 0.2
v 0.3 0 0.2
v 0.3 0.4 0.2
v 0.3 1.5 0.2
v 0.3 1.6 0.2
v -1.4 2.1 0.0999999
v -1.4 2.2 0.0999999
v -1.3 1.9 0.0999999
v -1.3 2.1 0.0999999
v -1.3 2.2 0.0999999
v -1.2 1.8 0.0999999
v -1.2 1.9 0.0999999
v -1.1 2 0.0999999
v -1.1 2.1 0.0999999
v -1.1 2.2 0.0999999
v -1 1.8 0.0999999
v -1 2 0.0999999
v -1 2.1 0.0999999
v -1 2.2 0.0999999
v -1.4 2.1 -0.1
v -1.4 2.2 -0.1
v -1.3 1.9 -0.1
v -1.3 2.1 -0.1
v -1.3 2.2 -0.1
v -1.2 1.8 -0.1
v -1.2 1.9 -0.1
v -1.1 2 -0.1
v -1.1 2.1 -0.1
v -1.1 2.2 -0.1
v -1 1.8 -0.1
v -1 2 -0.1
v -1 2.1 -0.1
v -1 2.2 -0.1
v -1.3 2.1 -0.2
v -1.3 2.2 -0.2
v -1.1 2.1 -0.2
v -1.1 2.2 -0.2
v -0.3 0 -0.2
v -0.3 0.5 -0.2
v -0.3 1.5 -0.2
v -0.3 1.6 -0.2
v -0.2 0 -0.2
v -0.2 0.5 -0.2
v -0.2 1.5 -0.2
v -0.2 1.6 -0.2
v 0.2 0 -0.2
v 0.2 0.4 -0.2
v 0.2 0.5 -0.2
v 0.2 1.5 -0.2
v 0.2 1.6 -0.2
v 0.3 0 -0.2
v 0.3 0.4 -0.2
v 0.3 1.5 -0.2
v 0.3 1.6 -0.2
v -1.6 2.2 -0.3
v -1.6 2.8 -0.3
v -1.5 2.2 -0.3
v -1.5 2.8 -0.3
v -1.5 2.9 -0.3
v -1 2.8 -0.3
v -1 2.9 -0.3
v -0.2 0 -0.3
v -0.2 0.5 -0.3
v -0.2 1.5 -0.3
v -0.2 1.6 -0.3
v 0.2 0 -0.3
v 0.2 0.5 -0.3
v 0.2 1.5 -0.3
v 0.2 1.6 -0.3
v -1.5 2.2 -0.4
v -1.5 2.8 -0.4
v -1 2.2 -0.4
v -1 2.8 -0.4
v -1 1.6 -0.9
v -1 3.2 -0.9
v -0.9 1.6 -0.9
v -0.9 3.2 -0.9
v -0.9 3.3 -0.9
v 0.9 1.6 -0.9
v 0.9 3.2 -0.9
v 0.9 3.3 -0.9
v 1 1.6 -0.9
v 1 3.2 -0.9
v -0.9 1.6 -1
v -0.9 3.2 -1
v 0.9 1.6 -1
v 0.9 3.2 -1
v -0.2 0 0.3
v 0.2 0 0.3
v -0.3 0 0.2
v -0.2 0 0.2
v 0.2 0 0.2
v 0.3 0 0.2
v -0.3 0 -0.2
v -0.2 0 -0.2
v 0.2 0 -0.2
v 0.3 0 -0.2
v -0.2 0 -0.3
v 0.2 0 -0.3
v -0.2 1.5 0.3
v 0.2 1.5 0.3
v -0.3 1.5 0.2
v -0.2 1.5 0.2
v 0.2 1.5 0.2
v 0.3 1.5 0.2
v -0.3 1.5 -0.2
v -0.2 1.5 -0.2
v 0.2 1.5 -0.2
v 0.3 1.5 -0.2
v -0.2 1.5 -0.3
v 0.2 1.5 -0.3
v -0.9 1.6 1
v 0.9 1.6 1
v -1 1.6 0.9
v -0.9 1.6 0.9
v 0.9 1.6 0.9
v 1 1.6 0.9
v -0.2 1.6 0.3
v 0.2 1.6 0.3
v -0.3 1.6 0.2
v -0.2 1.6 0.2
v 0.2 1.6 0.2
v 0.3 1.6 0.2
v -0.3 1.6 -0.2
v -0.2 1.6 -0.2
v 0.2 1.6 -0.2
v 0.3 1.6 -0.2
v -0.2 1.6 -0.3
v 0.2 1.6 -0.3
v -1 1.6 -0.9
v -0.9 1.6 -0.9
v 0.9 1.6 -0.9
v 1 1.6 -0.9
v -0.9 1.6 -1
v 0.9 1.6 -1
v -1.2 1.8 0.0999999
v -1 1.8 0.0999999
v -1.2 1.8 -0.1
v -1 1.8 -0.1
v -1.3 1.9 0.0999999
v -1.2 1.9 0.0999999
v -1.3 1.9 -0.1
v -1.2 1.9 -0.1
v -1.3 2.1 0.2
v -1.1 2.1 0.2
v -1.4 2.1 0.0999999
v -1.3 2.1 0.0999999
v -1.1 2.1 0.0999999
v -1 2.1 0.0999999
v -1.4 2.1 -0.1
v -1.3 2.1 -0.1
v -1.1 2.1 -0.1
v -1 2.1 -0.1
v -1.3 2.1 -0.2
v -1.1 2.1 -0.2
v -1.5 2.2 0.4
v -1 2.2 0.4
v -1.6 2.2 0.3
v -1.5 2.2 0.3
v -1.3 2.2 0.2
v -1.1 2.2 0.2
v -1.4 2.2 0.0999999
v -1.3 2.2 0.0999999
v -1.1 2.2 0.0999999
v -1 2.2 0.0999999
v -1.4 2.2 -0.1
v -1.3 2.2 -0.1
v -1.1 2.2 -0.1
v -1 2.2 -0.1
v -1.3 2.2 -0.2
v -1.1 2.2 -0.2
v -1.6 2.2 -0.3
v -1.5 2.2 -0.3
v -1.5 2.2 -0.4
v -1 2.2 -0.4
v -0.2 0.4 0.3
v 0.2 0.4 0.3
v -0.2 0.4 0.2
v 0.2 0.4 0.2
v 0.3 0.4 0.2
v 0.2 0.4 -0.2
v 0.3 0.4 -0.2
v -0.3 0.5 0.2
v -0.2 0.5 0.2
v -0.3 0.5 -0.2
v -0.2 0.5 -0.2
v 0.2 0.5 -0.2
v -0.2 0.5 -0.3
v 0.2 0.5 -0.3
v -1.1 2 0.0999999
v -1 2 0.0999999
v -1.1 2 -0.1
v -1 2 -0.1
v -1.5 2.8 0.4
v -1 2.8 0.4
v -1.6 2.8 0.3
v -1.5 2.8 0.3
v -1 2.8 0.3
v -1.6 2.8 -0.3
v -1.5 2.8 -0.3
v -1 2.8 -0.3
v -1.5 2.8 -0.4
v -1 2.8 -0.4
v -1.5 2.9 0.3
v -1 2.9 0.3
v -1.5 2.9 -0.3
v -1 2.9 -0.3
v -0.9 3.2 1
v 0.9 3.2 1
v -1 3.2 0.9
v -0.9 3.2 0.9
v 0.9 3.2 0.9
v 1 3.2 0.9
v -1 3.2 -0.9
v -0.9 3.2 -0.9
v 0.9 3.2 -0.9
v 1 3.2 -0.9
v -0.9 3.2 -1
v 0.9 3.2 -1
v -0.9 3.3 0.9
v 0.9 3.3 0.9
v -0.9 3.3 -0.9
v 0.9 3.3 -0.9

# faces
f 3/1/1 2/1/1 1/1/1
f 4/1/1 2/1/1 3/1/1
f 9/1/1 6/1/1 5/1/1
f 10/1/1 6/1/1 9/1/1
f 11/1/1 8/1/1 7/1/1
f 12/1/1 8/1/1 11/1/1
f 13/1/1 11/1/1 10/1/1
f 14/1/1 11/1/1 13/1/1
f 17/2/1 16/2/1 15/2/1
f 18/2/1 16/2/1 17/2/1
f 22/2/1 20/2/1 19/2/1
f 23/2/1 20/2/1 22/2/1
f 25/2/1 22/2/1 21/2/1
f 26/2/1 22/2/1 25/2/1
f 27/2/1 24/2/1 23/2/1
f 28/2/1 24/2/1 27/2/1
f 31/2/1 30/2/1 29/2/1
f 32/2/1 30/2/1 31/2/1
f 35/1/1 34/1/1 33/1/1
f 36/1/1 34/1/1 35/1/1
f 37/1/1 35/1/1 33/1/1
f 38/1/1 34/1/1 36/1/1
f 39/1/1 37/1/1 33/1/1
f 39/1/1 38/1/1 37/1/1
f 40/1/1 34/1/1 38/1/1
f 40/1/1 38/1/1 39/1/1
f 41/1/1 39/1/1 33/1/1
f 42/1/1 39/1/1 41/1/1
f 43/1/1 34/1/1 40/1/1
f 44/1/1 34/1/1 43/1/1
f 45/1/1 41/1/1 33/1/1
f 48/1/1 34/1/1 44/1/1
f 49/1/1 46/1/1 45/1/1
f 50/1/1 48/1/1 47/1/1
f 51/1/1 49/1/1 45/1/1
f 51/1/1 50/1/1 49/1/1
f 51/1/1 45/1/1 33/1/1
f 52/1/1 48/1/1 50/1/1
f 52/1/1 50/1/1 51/1/1
f 52/1/1 34/1/1 48/1/1
f 57/1/1 54/1/1 53/1/1
f 58/1/1 54/1/1 57/1/1
f 59/1/1 56/1/1 55/1/1
f 60/1/1 56/1/1 59/1/1
f 61/1/1 59/1/1 58/1/1
f 62/1/1 59/1/1 61/1/1
f 65/2/1 64/2/1 63/2/1
f 66/2/1 64/2/1 65/2/1
f 69/2/1 68/2/1 67/2/1
f 70/2/1 68/2/1 69/2/1
f 75/2/1 72/2/1 71/2/1
f 76/2/1 72/2/1 75/2/1
f 78/2/1 74/2/1 73/2/1
f 79/2/1 74/2/1 78/2/1
f 81/2/1 78/2/1 77/2/1
f 82/2/1 78/2/1 81/2/1
f 84/2/1 81/2/1 80/2/1
f 85/2/1 81/2/1 84/2/1
f 86/2/1 83/2/1 82/2/1
f 87/2/1 83/2/1 86/2/1
f 88/2/2 89/2/2 91/2/2
f 91/2/2 89/2/2 92/2/2
f 90/2/2 91/2/2 94/2/2
f 94/2/2 91/2/2 95/2/2
f 92/2/2 93/2/2 96/2/2
f 96/2/2 93/2/2 97/2/2
f 98/2/2 99/2/2 102/2/2
f 102/2/2 99/2/2 103/2/2
f 100/2/2 101/2/2 104/2/2
f 103/2/2 104/2/2 105/2/2
f 104/2/2 101/2/2 105/2/2
f 105/2/2 101/2/2 106/2/2
f 103/2/2 105/2/2 108/2/2
f 108/2/2 105/2/2 109/2/2
f 107/2/2 108/2/2 111/2/2
f 111/2/2 108/2/2 112/2/2
f 109/2/2 110/2/2 113/2/2
f 113/2/2 110/2/2 114/2/2
f 115/2/2 116/2/2 117/2/2
f 117/2/2 116/2/2 118/2/2
f 119/2/2 120/2/2 121/2/2
f 121/2/2 120/2/2 122/2/2
f 123/1/2 124/1/2 127/1/2
f 127/1/2 124/1/2 128/1/2
f 125/1/2 126/1/2 129/1/2
f 129/1/2 126/1/2 130/1/2
f 128/1/2 129/1/2 131/1/2
f 131/1/2 129/1/2 132/1/2
f 133/1/2 134/1/2 135/1/2
f 135/1/2 134/1/2 136/1/2
f 139/1/3 138/1/3 137/1/3
f 140/1/3 138/1/3 139/1/3
f 143/1/3 142/1/3 141/1/3
f 144/1/3 142/1/3 143/1/3
f 147/1/3 145/1/3 144/1/3
f 148/1/3 145/1/3 147/1/3
f 149/1/3 147/1/3 146/1/3
f 150/1/3 147/1/3 149/1/3
f 153/1/3 152/1/3 151/1/3
f 154/1/3 152/1/3 153/1/3
f 157/1/3 156/1/3 155/1/3
f 158/1/3 156/1/3 157/1/3
f 160/1/3 159/1/3 158/1/3
f 161/1/3 159/1/3 160/1/3
f 166/2/3 163/2/3 162/2/3
f 167/2/3 163/2/3 166/2/3
f 168/2/3 165/2/3 164/2/3
f 169/2/3 165/2/3 168/2/3
f 172/2/3 171/2/3 170/2/3
f 173/2/3 171/2/3 172/2/3
f 178/2/3 175/2/3 174/2/3
f 179/2/3 175/2/3 178/2/3
f 180/2/3 175/2/3 179/2/3
f 181/2/3 177/2/3 176/2/3
f 182/2/3 177/2/3 181/2/3
f 184/2/3 180/2/3 179/2/3
f 184/2/3 181/2/3 180/2/3
f 185/2/3 181/2/3 184/2/3
f 187/2/3 184/2/3 183/2/3
f 188/2/3 184/2/3 187/2/3
f 189/2/3 186/2/3 185/2/3
f 190/2/3 186/2/3 189/2/3
f 194/2/3 192/2/3 191/2/3
f 195/2/3 192/2/3 194/2/3
f 197/2/3 194/2/3 193/2/3
f 198/2/3 194/2/3 197/2/3
f 198/2/3 197/2/3 196/2/3
f 199/2/3 194/2/3 198/2/3
f 201/2/3 198/2/3 196/2/3
f 202/2/3 198/2/3 201/2/3
f 203/2/3 200/2/3 199/2/3
f 204/2/3 200/2/3 203/2/3
f 205/2/4 206/2/4 208/2/4
f 208/2/4 206/2/4 209/2/4
f 207/2/4 208/2/4 211/2/4
f 211/2/4 208/2/4 212/2/4
f 210/2/4 211/2/4 212/2/4
f 212/2/4 208/2/4 213/2/4
f 210/2/4 212/2/4 215/2/4
f 215/2/4 212/2/4 216/2/4
f 213/2/4 214/2/4 217/2/4
f 217/2/4 214/2/4 218/2/4
f 219/2/4 220/2/4 221/2/4
f 221/2/4 220/2/4 222/2/4
f 223/2/4 224/2/4 227/2/4
f 227/2/4 224/2/4 228/2/4
f 225/2/4 226/2/4 229/2/4
f 229/2/4 226/2/4 230/2/4
f 228/2/4 229/2/4 233/2/4
f 233/2/4 229/2/4 234/2/4
f 231/2/4 232/2/4 236/2/4
f 236/2/4 232/2/4 237/2/4
f 234/2/4 235/2/4 238/2/4
f 238/2/4 235/2/4 239/2/4
f 240/1/4 241/1/4 242/1/4
f 242/1/4 241/1/4 243/1/4
f 243/1/4 244/1/4 245/1/4
f 245/1/4 244/1/4 246/1/4
f 247/2/4 248/2/4 251/2/4
f 251/2/4 248/2/4 252/2/4
f 249/2/4 250/2/4 253/2/4
f 253/2/4 250/2/4 254/2/4
f 255/1/4 256/1/4 257/1/4
f 257/1/4 256/1/4 258/1/4
f 259/1/4 260/1/4 261/1/4
f 261/1/4 260/1/4 262/1/4
f 262/1/4 263/1/4 265/1/4
f 265/1/4 263/1/4 266/1/4
f 264/1/4 265/1/4 267/1/4
f 267/1/4 265/1/4 268/1/4
f 269/1/4 270/1/4 271/1/4
f 271/1/4 270/1/4 272/1/4
f 276/2/5 274/2/5 273/2/5
f 277/2/5 274/2/5 276/2/5
f 279/2/5 276/2/5 275/2/5
f 279/2/5 278/2/5 277/2/5
f 279/2/5 277/2/5 276/2/5
f 280/2/5 278/2/5 279/2/5
f 281/2/5 278/2/5 280/2/5
f 282/2/5 278/2/5 281/2/5
f 283/2/5 281/2/5 280/2/5
f 284/2/5 281/2/5 283/2/5
f 288/2/5 286/2/5 285/2/5
f 289/2/5 286/2/5 288/2/5
f 291/2/5 288/2/5 287/2/5
f 292/2/5 288/2/5 291/2/5
f 293/2/5 290/2/5 289/2/5
f 294/2/5 290/2/5 293/2/5
f 295/2/5 293/2/5 292/2/5
f 296/2/5 293/2/5 295/2/5
f 300/1/5 298/1/5 297/1/5
f 301/1/5 298/1/5 300/1/5
f 303/1/5 300/1/5 299/1/5
f 303/1/5 302/1/5 301/1/5
f 303/1/5 301/1/5 300/1/5
f 304/1/5 302/1/5 303/1/5
f 305/1/5 303/1/5 299/1/5
f 306/1/5 303/1/5 305/1/5
f 307/1/5 302/1/5 304/1/5
f 308/1/5 302/1/5 307/1/5
f 309/1/5 305/1/5 299/1/5
f 312/1/5 302/1/5 308/1/5
f 313/1/5 310/1/5 309/1/5
f 314/1/5 312/1/5 311/1/5
f 315/1/5 313/1/5 309/1/5
f 315/1/5 314/1/5 313/1/5
f 315/1/5 309/1/5 299/1/5
f 316/1/5 314/1/5 315/1/5
f 317/1/5 312/1/5 314/1/5
f 317/1/5 314/1/5 316/1/5
f 317/1/5 302/1/5 312/1/5
f 318/1/5 302/1/5 317/1/5
f 319/1/5 317/1/5 316/1/5
f 320/1/5 317/1/5 319/1/5
f 323/2/5 322/2/5 321/2/5
f 324/2/5 322/2/5 323/2/5
f 327/2/5 326/2/5 325/2/5
f 328/2/5 326/2/5 327/2/5
f 332/2/5 330/2/5 329/2/5
f 333/2/5 330/2/5 332/2/5
f 335/2/5 332/2/5 331/2/5
f 336/2/5 332/2/5 335/2/5
f 337/2/5 334/2/5 333/2/5
f 338/2/5 334/2/5 337/2/5
f 339/2/5 337/2/5 336/2/5
f 340/2/5 337/2/5 339/2/5
f 344/1/5 342/1/5 341/1/5
f 345/1/5 342/1/5 344/1/5
f 345/1/5 344/1/5 343/1/5
f 346/1/5 342/1/5 345/1/5
f 347/1/5 345/1/5 343/1/5
f 348/1/5 345/1/5 347/1/5
f 349/1/5 342/1/5 346/1/5
f 350/1/5 342/1/5 349/1/5
f 351/1/5 347/1/5 343/1/5
f 355/1/5 352/1/5 351/1/5
f 356/1/5 354/1/5 353/1/5
f 357/1/5 351/1/5 343/1/5
f 357/1/5 356/1/5 355/1/5
f 357/1/5 355/1/5 351/1/5
f 358/1/5 356/1/5 357/1/5
f 359/1/5 356/1/5 358/1/5
f 360/1/5 354/1/5 356/1/5
f 360/1/5 356/1/5 359/1/5
f 361/2/6 362/2/6 363/2/6
f 363/2/6 362/2/6 364/2/6
f 364/2/6 365/2/6 366/2/6
f 366/2/6 365/2/6 367/2/6
f 368/2/6 369/2/6 370/2/6
f 370/2/6 369/2/6 371/2/6
f 371/2/6 372/2/6 373/2/6
f 373/2/6 372/2/6 374/2/6
f 375/2/6 376/2/6 377/2/6
f 377/2/6 376/2/6 378/2/6
f 379/1/6 380/1/6 382/1/6
f 382/1/6 380/1/6 383/1/6
f 381/1/6 382/1/6 384/1/6
f 384/1/6 382/1/6 385/1/6
f 385/1/6 386/1/6 387/1/6
f 387/1/6 386/1/6 388/1/6
f 389/1/6 390/1/6 391/1/6
f 391/1/6 390/1/6 392/1/6
f 393/1/6 394/1/6 396/1/6
f 396/1/6 394/1/6 397/1/6
f 395/1/6 396/1/6 399/1/6
f 399/1/6 396/1/6 400/1/6
f 397/1/6 398/1/6 401/1/6
f 401/1/6 398/1/6 402/1/6
f 400/1/6 401/1/6 403/1/6
f 403/1/6 401/1/6 404/1/6
f 405/1/6 406/1/6 407/1/6
f 407/1/6 406/1/6 408/1/6
