# MagicaVoxel @ Ephtracy

# group
o 

# material
mtllib Oak Trees-1.mtl
usemtl palette

# normals
vn -1 0 0
vn 1 0 0
vn 0 0 1
vn 0 0 -1
vn 0 -1 0
vn 0 1 0

# texcoords
vt 0.908203 0.5
vt 0.939453 0.5

# verts
v -0.7 1.1 0.6
v -0.7 1.1 -0.6
v -0.7 2.4 0.6
v -0.7 2.4 -0.6
v -0.6 1.1 0.7
v -0.6 1.1 0.6
v -0.6 1.1 -0.6
v -0.6 1.1 -0.7
v -0.6 2.4 0.7
v -0.6 2.4 0.6
v -0.6 2.4 -0.6
v -0.6 2.4 -0.7
v -0.6 2.5 0.6
v -0.6 2.5 -0.6
v -0.2 0 0.1
v -0.2 0 -0.1
v -0.2 0.4 0.1
v -0.2 0.4 -0.1
v -0.2 1 0.1
v -0.2 1 -0.1
v -0.2 1.1 0.1
v -0.2 1.1 -0.1
v -0.1 0 0.2
v -0.1 0 0.1
v -0.1 0 -0.1
v -0.1 0 -0.2
v -0.1 0.3 0.2
v -0.1 0.3 0.1
v -0.1 0.4 0.1
v -0.1 0.4 -0.1
v -0.1 0.4 -0.2
v -0.1 1 0.2
v -0.1 1 0.1
v -0.1 1 -0.1
v -0.1 1 -0.2
v -0.1 1.1 0.2
v -0.1 1.1 0.1
v -0.1 1.1 -0.1
v -0.1 1.1 -0.2
v 0.1 0 0.2
v 0.1 0 0.1
v 0.1 0 -0.1
v 0.1 0 -0.2
v 0.1 0.3 0.2
v 0.1 0.3 0.1
v 0.1 0.3 -0.1
v 0.1 0.4 -0.1
v 0.1 0.4 -0.2
v 0.1 1 0.2
v 0.1 1 0.1
v 0.1 1 -0.1
v 0.1 1 -0.2
v 0.1 1.1 0.2
v 0.1 1.1 0.1
v 0.1 1.1 -0.1
v 0.1 1.1 -0.2
v 0.2 0 0.1
v 0.2 0 -0.1
v 0.2 0.3 0.1
v 0.2 0.3 -0.1
v 0.2 1 0.1
v 0.2 1 -0.1
v 0.2 1.1 0.1
v 0.2 1.1 -0.1
v 0.6 1.1 0.7
v 0.6 1.1 0.6
v 0.6 1.1 -0.6
v 0.6 1.1 -0.7
v 0.6 2.4 0.7
v 0.6 2.4 0.6
v 0.6 2.4 -0.6
v 0.6 2.4 -0.7
v 0.6 2.5 0.6
v 0.6 2.5 -0.6
v 0.7 1.1 0.6
v 0.7 1.1 -0.6
v 0.7 2.4 0.6
v 0.7 2.4 -0.6
v -0.6 1.1 0.7
v -0.6 2.4 0.7
v 0.6 1.1 0.7
v 0.6 2.4 0.7
v -0.7 1.1 0.6
v -0.7 2.4 0.6
v -0.6 1.1 0.6
v -0.6 2.4 0.6
v -0.6 2.5 0.6
v 0.6 1.1 0.6
v 0.6 2.4 0.6
v 0.6 2.5 0.6
v 0.7 1.1 0.6
v 0.7 2.4 0.6
v -0.1 0 0.2
v -0.1 0.3 0.2
v -0.1 1 0.2
v -0.1 1.1 0.2
v 0.1 0 0.2
v 0.1 0.3 0.2
v 0.1 1 0.2
v 0.1 1.1 0.2
v -0.2 0 0.1
v -0.2 0.4 0.1
v -0.2 1 0.1
v -0.2 1.1 0.1
v -0.1 0 0.1
v -0.1 0.3 0.1
v -0.1 0.4 0.1
v -0.1 1 0.1
v -0.1 1.1 0.1
v 0.1 0 0.1
v 0.1 0.3 0.1
v 0.1 1 0.1
v 0.1 1.1 0.1
v 0.2 0 0.1
v 0.2 0.3 0.1
v 0.2 1 0.1
v 0.2 1.1 0.1
v -0.2 0 -0.1
v -0.2 0.4 -0.1
v -0.2 1 -0.1
v -0.2 1.1 -0.1
v -0.1 0 -0.1
v -0.1 0.4 -0.1
v -0.1 1 -0.1
v -0.1 1.1 -0.1
v 0.1 0 -0.1
v 0.1 0.3 -0.1
v 0.1 0.4 -0.1
v 0.1 1 -0.1
v 0.1 1.1 -0.1
v 0.2 0 -0.1
v 0.2 0.3 -0.1
v 0.2 1 -0.1
v 0.2 1.1 -0.1
v -0.1 0 -0.2
v -0.1 0.4 -0.2
v -0.1 1 -0.2
v -0.1 1.1 -0.2
v 0.1 0 -0.2
v 0.1 0.4 -0.2
v 0.1 1 -0.2
v 0.1 1.1 -0.2
v -0.7 1.1 -0.6
v -0.7 2.4 -0.6
v -0.6 1.1 -0.6
v -0.6 2.4 -0.6
v -0.6 2.5 -0.6
v 0.6 1.1 -0.6
v 0.6 2.4 -0.6
v 0.6 2.5 -0.6
v 0.7 1.1 -0.6
v 0.7 2.4 -0.6
v -0.6 1.1 -0.7
v -0.6 2.4 -0.7
v 0.6 1.1 -0.7
v 0.6 2.4 -0.7
v -0.1 0 0.2
v 0.1 0 0.2
v -0.2 0 0.1
v -0.1 0 0.1
v 0.1 0 0.1
v 0.2 0 0.1
v -0.2 0 -0.1
v -0.1 0 -0.1
v 0.1 0 -0.1
v 0.2 0 -0.1
v -0.1 0 -0.2
v 0.1 0 -0.2
v -0.1 1 0.2
v 0.1 1 0.2
v -0.2 1 0.1
v -0.1 1 0.1
v 0.1 1 0.1
v 0.2 1 0.1
v -0.2 1 -0.1
v -0.1 1 -0.1
v 0.1 1 -0.1
v 0.2 1 -0.1
v -0.1 1 -0.2
v 0.1 1 -0.2
v -0.6 1.1 0.7
v 0.6 1.1 0.7
v -0.7 1.1 0.6
v -0.6 1.1 0.6
v 0.6 1.1 0.6
v 0.7 1.1 0.6
v -0.1 1.1 0.2
v 0.1 1.1 0.2
v -0.2 1.1 0.1
v -0.1 1.1 0.1
v 0.1 1.1 0.1
v 0.2 1.1 0.1
v -0.2 1.1 -0.1
v -0.1 1.1 -0.1
v 0.1 1.1 -0.1
v 0.2 1.1 -0.1
v -0.1 1.1 -0.2
v 0.1 1.1 -0.2
v -0.7 1.1 -0.6
v -0.6 1.1 -0.6
v 0.6 1.1 -0.6
v 0.7 1.1 -0.6
v -0.6 1.1 -0.7
v 0.6 1.1 -0.7
v -0.1 0.3 0.2
v 0.1 0.3 0.2
v -0.1 0.3 0.1
v 0.1 0.3 0.1
v 0.2 0.3 0.1
v 0.1 0.3 -0.1
v 0.2 0.3 -0.1
v -0.2 0.4 0.1
v -0.1 0.4 0.1
v -0.2 0.4 -0.1
v -0.1 0.4 -0.1
v 0.1 0.4 -0.1
v -0.1 0.4 -0.2
v 0.1 0.4 -0.2
v -0.6 2.4 0.7
v 0.6 2.4 0.7
v -0.7 2.4 0.6
v -0.6 2.4 0.6
v 0.6 2.4 0.6
v 0.7 2.4 0.6
v -0.7 2.4 -0.6
v -0.6 2.4 -0.6
v 0.6 2.4 -0.6
v 0.7 2.4 -0.6
v -0.6 2.4 -0.7
v 0.6 2.4 -0.7
v -0.6 2.5 0.6
v 0.6 2.5 0.6
v -0.6 2.5 -0.6
v 0.6 2.5 -0.6

# faces
f 3/1/1 2/1/1 1/1/1
f 4/1/1 2/1/1 3/1/1
f 9/1/1 6/1/1 5/1/1
f 10/1/1 6/1/1 9/1/1
f 11/1/1 8/1/1 7/1/1
f 12/1/1 8/1/1 11/1/1
f 13/1/1 11/1/1 10/1/1
f 14/1/1 11/1/1 13/1/1
f 17/2/1 16/2/1 15/2/1
f 18/2/1 16/2/1 17/2/1
f 21/2/1 20/2/1 19/2/1
f 22/2/1 20/2/1 21/2/1
f 27/2/1 24/2/1 23/2/1
f 28/2/1 24/2/1 27/2/1
f 30/2/1 26/2/1 25/2/1
f 31/2/1 26/2/1 30/2/1
f 33/2/1 30/2/1 29/2/1
f 34/2/1 30/2/1 33/2/1
f 36/2/1 33/2/1 32/2/1
f 37/2/1 33/2/1 36/2/1
f 38/2/1 35/2/1 34/2/1
f 39/2/1 35/2/1 38/2/1
f 40/2/2 41/2/2 44/2/2
f 44/2/2 41/2/2 45/2/2
f 42/2/2 43/2/2 46/2/2
f 45/2/2 46/2/2 47/2/2
f 46/2/2 43/2/2 47/2/2
f 47/2/2 43/2/2 48/2/2
f 45/2/2 47/2/2 50/2/2
f 50/2/2 47/2/2 51/2/2
f 49/2/2 50/2/2 53/2/2
f 53/2/2 50/2/2 54/2/2
f 51/2/2 52/2/2 55/2/2
f 55/2/2 52/2/2 56/2/2
f 57/2/2 58/2/2 59/2/2
f 59/2/2 58/2/2 60/2/2
f 61/2/2 62/2/2 63/2/2
f 63/2/2 62/2/2 64/2/2
f 65/1/2 66/1/2 69/1/2
f 69/1/2 66/1/2 70/1/2
f 67/1/2 68/1/2 71/1/2
f 71/1/2 68/1/2 72/1/2
f 70/1/2 71/1/2 73/1/2
f 73/1/2 71/1/2 74/1/2
f 75/1/2 76/1/2 77/1/2
f 77/1/2 76/1/2 78/1/2
f 81/1/3 80/1/3 79/1/3
f 82/1/3 80/1/3 81/1/3
f 85/1/3 84/1/3 83/1/3
f 86/1/3 84/1/3 85/1/3
f 89/1/3 87/1/3 86/1/3
f 90/1/3 87/1/3 89/1/3
f 91/1/3 89/1/3 88/1/3
f 92/1/3 89/1/3 91/1/3
f 97/2/3 94/2/3 93/2/3
f 98/2/3 94/2/3 97/2/3
f 99/2/3 96/2/3 95/2/3
f 100/2/3 96/2/3 99/2/3
f 105/2/3 102/2/3 101/2/3
f 106/2/3 102/2/3 105/2/3
f 107/2/3 102/2/3 106/2/3
f 108/2/3 104/2/3 103/2/3
f 109/2/3 104/2/3 108/2/3
f 111/2/3 107/2/3 106/2/3
f 111/2/3 108/2/3 107/2/3
f 112/2/3 108/2/3 111/2/3
f 114/2/3 111/2/3 110/2/3
f 115/2/3 111/2/3 114/2/3
f 116/2/3 113/2/3 112/2/3
f 117/2/3 113/2/3 116/2/3
f 118/2/4 119/2/4 122/2/4
f 122/2/4 119/2/4 123/2/4
f 120/2/4 121/2/4 124/2/4
f 124/2/4 121/2/4 125/2/4
f 123/2/4 124/2/4 128/2/4
f 128/2/4 124/2/4 129/2/4
f 126/2/4 127/2/4 131/2/4
f 131/2/4 127/2/4 132/2/4
f 129/2/4 130/2/4 133/2/4
f 133/2/4 130/2/4 134/2/4
f 135/2/4 136/2/4 139/2/4
f 139/2/4 136/2/4 140/2/4
f 137/2/4 138/2/4 141/2/4
f 141/2/4 138/2/4 142/2/4
f 143/1/4 144/1/4 145/1/4
f 145/1/4 144/1/4 146/1/4
f 146/1/4 147/1/4 149/1/4
f 149/1/4 147/1/4 150/1/4
f 148/1/4 149/1/4 151/1/4
f 151/1/4 149/1/4 152/1/4
f 153/1/4 154/1/4 155/1/4
f 155/1/4 154/1/4 156/1/4
f 160/2/5 158/2/5 157/2/5
f 161/2/5 158/2/5 160/2/5
f 163/2/5 160/2/5 159/2/5
f 163/2/5 162/2/5 161/2/5
f 163/2/5 161/2/5 160/2/5
f 164/2/5 162/2/5 163/2/5
f 165/2/5 162/2/5 164/2/5
f 166/2/5 162/2/5 165/2/5
f 167/2/5 165/2/5 164/2/5
f 168/2/5 165/2/5 167/2/5
f 172/2/5 170/2/5 169/2/5
f 173/2/5 170/2/5 172/2/5
f 175/2/5 172/2/5 171/2/5
f 176/2/5 172/2/5 175/2/5
f 177/2/5 174/2/5 173/2/5
f 178/2/5 174/2/5 177/2/5
f 179/2/5 177/2/5 176/2/5
f 180/2/5 177/2/5 179/2/5
f 184/1/5 182/1/5 181/1/5
f 185/1/5 182/1/5 184/1/5
f 187/1/5 184/1/5 183/1/5
f 187/1/5 186/1/5 185/1/5
f 187/1/5 185/1/5 184/1/5
f 188/1/5 186/1/5 187/1/5
f 189/1/5 187/1/5 183/1/5
f 190/1/5 187/1/5 189/1/5
f 191/1/5 186/1/5 188/1/5
f 192/1/5 186/1/5 191/1/5
f 193/1/5 189/1/5 183/1/5
f 196/1/5 186/1/5 192/1/5
f 197/1/5 194/1/5 193/1/5
f 198/1/5 196/1/5 195/1/5
f 199/1/5 197/1/5 193/1/5
f 199/1/5 198/1/5 197/1/5
f 199/1/5 193/1/5 183/1/5
f 200/1/5 198/1/5 199/1/5
f 201/1/5 196/1/5 198/1/5
f 201/1/5 198/1/5 200/1/5
f 201/1/5 186/1/5 196/1/5
f 202/1/5 186/1/5 201/1/5
f 203/1/5 201/1/5 200/1/5
f 204/1/5 201/1/5 203/1/5
f 205/2/6 206/2/6 207/2/6
f 207/2/6 206/2/6 208/2/6
f 208/2/6 209/2/6 210/2/6
f 210/2/6 209/2/6 211/2/6
f 212/2/6 213/2/6 214/2/6
f 214/2/6 213/2/6 215/2/6
f 215/2/6 216/2/6 217/2/6
f 217/2/6 216/2/6 218/2/6
f 219/1/6 220/1/6 222/1/6
f 222/1/6 220/1/6 223/1/6
f 221/1/6 222/1/6 225/1/6
f 225/1/6 222/1/6 226/1/6
f 223/1/6 224/1/6 227/1/6
f 227/1/6 224/1/6 228/1/6
f 226/1/6 227/1/6 229/1/6
f 229/1/6 227/1/6 230/1/6
f 231/1/6 232/1/6 233/1/6
f 233/1/6 232/1/6 234/1/6
