# MagicaVoxel @ Ephtracy

# group
o 

# material
mtllib Oak Trees-2.mtl
usemtl palette

# normals
vn -1 0 0
vn 1 0 0
vn 0 0 1
vn 0 0 -1
vn 0 -1 0
vn 0 1 0

# texcoords
vt 0.908203 0.5
vt 0.939453 0.5

# verts
v -0.5 1.9 0.4
v -0.5 1.9 -0.4
v -0.5 2.9 0.4
v -0.5 2.9 -0.4
v -0.4 1.9 0.5
v -0.4 1.9 0.4
v -0.4 1.9 -0.4
v -0.4 1.9 -0.5
v -0.4 2.9 0.5
v -0.4 2.9 0.4
v -0.4 2.9 -0.4
v -0.4 2.9 -0.5
v -0.4 3 0.4
v -0.4 3 -0.4
v -0.2 0 0.1
v -0.2 0 -0.1
v -0.2 0.3 0.1
v -0.2 0.3 -0.1
v -0.2 1.8 0.1
v -0.2 1.8 -0.1
v -0.2 1.9 0.1
v -0.2 1.9 -0.1
v -0.1 0 0.2
v -0.1 0 0.1
v -0.1 0 -0.1
v -0.1 0 -0.2
v -0.1 0.3 0.1
v -0.1 0.3 -0.1
v -0.1 0.3 -0.2
v -0.1 0.4 0.2
v -0.1 0.4 0.1
v -0.1 1.8 0.2
v -0.1 1.8 0.1
v -0.1 1.8 -0.1
v -0.1 1.8 -0.2
v -0.1 1.9 0.2
v -0.1 1.9 0.1
v -0.1 1.9 -0.1
v -0.1 1.9 -0.2
v 0.1 1.5 0.2
v 0.1 1.5 0.1
v 0.1 1.5 -0.1
v 0.1 1.5 -0.2
v 0.1 1.8 0.2
v 0.1 1.8 0.1
v 0.1 1.8 -0.1
v 0.1 1.8 -0.2
v 0.2 1.4 0.1
v 0.2 1.4 -0.1
v 0.2 1.5 0.3
v 0.2 1.5 0.2
v 0.2 1.5 0.1
v 0.2 1.5 -0.1
v 0.2 1.5 -0.2
v 0.2 1.5 -0.3
v 0.2 1.9 0.3
v 0.2 1.9 0.2
v 0.2 1.9 -0.2
v 0.2 1.9 -0.3
v 0.3 1.3 0.1
v 0.3 1.3 -0.1
v 0.3 1.4 0.2
v 0.3 1.4 0.1
v 0.3 1.4 -0.1
v 0.3 1.4 -0.2
v 0.3 1.5 0.2
v 0.3 1.5 0.1
v 0.3 1.5 -0.1
v 0.3 1.5 -0.2
v 0.1 0 0.2
v 0.1 0 0.1
v 0.1 0 -0.1
v 0.1 0 -0.2
v 0.1 0.3 -0.1
v 0.1 0.3 -0.2
v 0.1 0.4 0.2
v 0.1 0.4 0.1
v 0.1 0.4 -0.1
v 0.1 1.1 0.1
v 0.1 1.1 -0.1
v 0.1 1.3 0.1
v 0.1 1.3 -0.1
v 0.1 1.5 0.1
v 0.1 1.5 -0.1
v 0.2 0 0.1
v 0.2 0 -0.1
v 0.2 0.4 0.1
v 0.2 0.4 -0.1
v 0.4 1.1 0.1
v 0.4 1.1 -0.1
v 0.4 1.2 0.1
v 0.4 1.2 -0.1
v 0.4 1.9 0.5
v 0.4 1.9 0.4
v 0.4 1.9 -0.4
v 0.4 1.9 -0.5
v 0.4 2.9 0.5
v 0.4 2.9 0.4
v 0.4 2.9 -0.4
v 0.4 2.9 -0.5
v 0.4 3 0.4
v 0.4 3 -0.4
v 0.5 1.2 0.1
v 0.5 1.2 -0.1
v 0.5 1.4 0.2
v 0.5 1.4 0.1
v 0.5 1.4 -0.1
v 0.5 1.4 -0.2
v 0.5 1.5 0.2
v 0.5 1.5 0.1
v 0.5 1.5 -0.1
v 0.5 1.5 -0.2
v 0.5 1.9 0.4
v 0.5 1.9 0.3
v 0.5 1.9 -0.3
v 0.5 1.9 -0.4
v 0.5 2.2 0.3
v 0.5 2.2 0.2
v 0.5 2.2 -0.2
v 0.5 2.2 -0.3
v 0.5 2.3 0.2
v 0.5 2.3 -0.2
v 0.5 2.9 0.4
v 0.5 2.9 -0.4
v 0.6 1.4 0.1
v 0.6 1.4 -0.1
v 0.6 1.5 0.3
v 0.6 1.5 0.2
v 0.6 1.5 0.1
v 0.6 1.5 -0.1
v 0.6 1.5 -0.2
v 0.6 1.5 -0.3
v 0.6 2.2 0.3
v 0.6 2.2 0.2
v 0.6 2.2 -0.2
v 0.6 2.2 -0.3
v 0.6 2.3 0.2
v 0.6 2.3 -0.2
v 0.7 1.5 0.2
v 0.7 1.5 -0.2
v 0.7 2.2 0.2
v 0.7 2.2 -0.2
v -0.4 1.9 0.5
v -0.4 2.9 0.5
v 0.4 1.9 0.5
v 0.4 2.9 0.5
v -0.5 1.9 0.4
v -0.5 2.9 0.4
v -0.4 1.9 0.4
v -0.4 2.9 0.4
v -0.4 3 0.4
v 0.4 1.9 0.4
v 0.4 2.9 0.4
v 0.4 3 0.4
v 0.5 1.9 0.4
v 0.5 2.9 0.4
v 0.2 1.5 0.3
v 0.2 1.9 0.3
v 0.5 1.9 0.3
v 0.5 2.2 0.3
v 0.6 1.5 0.3
v 0.6 2.2 0.3
v -0.1 0 0.2
v -0.1 0.4 0.2
v -0.1 1.8 0.2
v -0.1 1.9 0.2
v 0.1 0 0.2
v 0.1 0.4 0.2
v 0.1 1.5 0.2
v 0.1 1.8 0.2
v 0.1 1.9 0.2
v 0.2 1.5 0.2
v 0.2 1.9 0.2
v 0.3 1.4 0.2
v 0.3 1.5 0.2
v 0.5 1.4 0.2
v 0.5 1.5 0.2
v 0.5 2.2 0.2
v 0.5 2.3 0.2
v 0.6 1.5 0.2
v 0.6 2.2 0.2
v 0.6 2.3 0.2
v 0.7 1.5 0.2
v 0.7 2.2 0.2
v -0.2 0 0.1
v -0.2 0.3 0.1
v -0.2 1.8 0.1
v -0.2 1.9 0.1
v -0.1 0 0.1
v -0.1 0.3 0.1
v -0.1 0.4 0.1
v -0.1 1.8 0.1
v -0.1 1.9 0.1
v 0.1 0 0.1
v 0.1 0.4 0.1
v 0.1 1.1 0.1
v 0.1 1.3 0.1
v 0.1 1.5 0.1
v 0.1 1.8 0.1
v 0.2 0 0.1
v 0.2 0.4 0.1
v 0.2 1.4 0.1
v 0.2 1.5 0.1
v 0.3 1.3 0.1
v 0.3 1.4 0.1
v 0.3 1.5 0.1
v 0.4 1.1 0.1
v 0.4 1.2 0.1
v 0.5 1.2 0.1
v 0.5 1.4 0.1
v 0.5 1.5 0.1
v 0.6 1.4 0.1
v 0.6 1.5 0.1
v -0.2 0 -0.1
v -0.2 0.3 -0.1
v -0.2 1.8 -0.1
v -0.2 1.9 -0.1
v -0.1 0 -0.1
v -0.1 0.3 -0.1
v -0.1 1.8 -0.1
v -0.1 1.9 -0.1
v 0.1 0 -0.1
v 0.1 0.3 -0.1
v 0.1 0.4 -0.1
v 0.1 1.1 -0.1
v 0.1 1.3 -0.1
v 0.1 1.5 -0.1
v 0.1 1.8 -0.1
v 0.2 0 -0.1
v 0.2 0.4 -0.1
v 0.2 1.4 -0.1
v 0.2 1.5 -0.1
v 0.3 1.3 -0.1
v 0.3 1.4 -0.1
v 0.3 1.5 -0.1
v 0.4 1.1 -0.1
v 0.4 1.2 -0.1
v 0.5 1.2 -0.1
v 0.5 1.4 -0.1
v 0.5 1.5 -0.1
v 0.6 1.4 -0.1
v 0.6 1.5 -0.1
v -0.1 0 -0.2
v -0.1 0.3 -0.2
v -0.1 1.8 -0.2
v -0.1 1.9 -0.2
v 0.1 0 -0.2
v 0.1 0.3 -0.2
v 0.1 1.5 -0.2
v 0.1 1.8 -0.2
v 0.1 1.9 -0.2
v 0.2 1.5 -0.2
v 0.2 1.9 -0.2
v 0.3 1.4 -0.2
v 0.3 1.5 -0.2
v 0.5 1.4 -0.2
v 0.5 1.5 -0.2
v 0.5 2.2 -0.2
v 0.5 2.3 -0.2
v 0.6 1.5 -0.2
v 0.6 2.2 -0.2
v 0.6 2.3 -0.2
v 0.7 1.5 -0.2
v 0.7 2.2 -0.2
v 0.2 1.5 -0.3
v 0.2 1.9 -0.3
v 0.5 1.9 -0.3
v 0.5 2.2 -0.3
v 0.6 1.5 -0.3
v 0.6 2.2 -0.3
v -0.5 1.9 -0.4
v -0.5 2.9 -0.4
v -0.4 1.9 -0.4
v -0.4 2.9 -0.4
v -0.4 3 -0.4
v 0.4 1.9 -0.4
v 0.4 2.9 -0.4
v 0.4 3 -0.4
v 0.5 1.9 -0.4
v 0.5 2.9 -0.4
v -0.4 1.9 -0.5
v -0.4 2.9 -0.5
v 0.4 1.9 -0.5
v 0.4 2.9 -0.5
v -0.1 0 0.2
v 0.1 0 0.2
v -0.2 0 0.1
v -0.1 0 0.1
v 0.1 0 0.1
v 0.2 0 0.1
v -0.2 0 -0.1
v -0.1 0 -0.1
v 0.1 0 -0.1
v 0.2 0 -0.1
v -0.1 0 -0.2
v 0.1 0 -0.2
v 0.1 1.1 0.1
v 0.4 1.1 0.1
v 0.1 1.1 -0.1
v 0.4 1.1 -0.1
v 0.4 1.2 0.1
v 0.5 1.2 0.1
v 0.4 1.2 -0.1
v 0.5 1.2 -0.1
v 0.3 1.4 0.2
v 0.5 1.4 0.2
v 0.2 1.4 0.1
v 0.3 1.4 0.1
v 0.5 1.4 0.1
v 0.6 1.4 0.1
v 0.2 1.4 -0.1
v 0.3 1.4 -0.1
v 0.5 1.4 -0.1
v 0.6 1.4 -0.1
v 0.3 1.4 -0.2
v 0.5 1.4 -0.2
v 0.2 1.5 0.3
v 0.6 1.5 0.3
v 0.1 1.5 0.2
v 0.2 1.5 0.2
v 0.3 1.5 0.2
v 0.5 1.5 0.2
v 0.6 1.5 0.2
v 0.7 1.5 0.2
v 0.1 1.5 0.1
v 0.2 1.5 0.1
v 0.3 1.5 0.1
v 0.5 1.5 0.1
v 0.6 1.5 0.1
v 0.1 1.5 -0.1
v 0.2 1.5 -0.1
v 0.3 1.5 -0.1
v 0.5 1.5 -0.1
v 0.6 1.5 -0.1
v 0.1 1.5 -0.2
v 0.2 1.5 -0.2
v 0.3 1.5 -0.2
v 0.5 1.5 -0.2
v 0.6 1.5 -0.2
v 0.7 1.5 -0.2
v 0.2 1.5 -0.3
v 0.6 1.5 -0.3
v -0.1 1.8 0.2
v 0.1 1.8 0.2
v -0.2 1.8 0.1
v -0.1 1.8 0.1
v 0.1 1.8 0.1
v -0.2 1.8 -0.1
v -0.1 1.8 -0.1
v 0.1 1.8 -0.1
v -0.1 1.8 -0.2
v 0.1 1.8 -0.2
v -0.4 1.9 0.5
v 0.4 1.9 0.5
v -0.5 1.9 0.4
v -0.4 1.9 0.4
v 0.4 1.9 0.4
v 0.5 1.9 0.4
v 0.2 1.9 0.3
v 0.5 1.9 0.3
v -0.1 1.9 0.2
v 0.1 1.9 0.2
v 0.2 1.9 0.2
v -0.2 1.9 0.1
v -0.1 1.9 0.1
v -0.2 1.9 -0.1
v -0.1 1.9 -0.1
v -0.1 1.9 -0.2
v 0.1 1.9 -0.2
v 0.2 1.9 -0.2
v 0.2 1.9 -0.3
v 0.5 1.9 -0.3
v -0.5 1.9 -0.4
v -0.4 1.9 -0.4
v 0.4 1.9 -0.4
v 0.5 1.9 -0.4
v -0.4 1.9 -0.5
v 0.4 1.9 -0.5
v -0.2 0.3 0.1
v -0.1 0.3 0.1
v -0.2 0.3 -0.1
v -0.1 0.3 -0.1
v 0.1 0.3 -0.1
v -0.1 0.3 -0.2
v 0.1 0.3 -0.2
v -0.1 0.4 0.2
v 0.1 0.4 0.2
v -0.1 0.4 0.1
v 0.1 0.4 0.1
v 0.2 0.4 0.1
v 0.1 0.4 -0.1
v 0.2 0.4 -0.1
v 0.1 1.3 0.1
v 0.3 1.3 0.1
v 0.1 1.3 -0.1
v 0.3 1.3 -0.1
v 0.5 2.2 0.3
v 0.6 2.2 0.3
v 0.5 2.2 0.2
v 0.6 2.2 0.2
v 0.7 2.2 0.2
v 0.5 2.2 -0.2
v 0.6 2.2 -0.2
v 0.7 2.2 -0.2
v 0.5 2.2 -0.3
v 0.6 2.2 -0.3
v 0.5 2.3 0.2
v 0.6 2.3 0.2
v 0.5 2.3 -0.2
v 0.6 2.3 -0.2
v -0.4 2.9 0.5
v 0.4 2.9 0.5
v -0.5 2.9 0.4
v -0.4 2.9 0.4
v 0.4 2.9 0.4
v 0.5 2.9 0.4
v -0.5 2.9 -0.4
v -0.4 2.9 -0.4
v 0.4 2.9 -0.4
v 0.5 2.9 -0.4
v -0.4 2.9 -0.5
v 0.4 2.9 -0.5
v -0.4 3 0.4
v 0.4 3 0.4
v -0.4 3 -0.4
v 0.4 3 -0.4

# faces
f 3/1/1 2/1/1 1/1/1
f 4/1/1 2/1/1 3/1/1
f 9/1/1 6/1/1 5/1/1
f 10/1/1 6/1/1 9/1/1
f 11/1/1 8/1/1 7/1/1
f 12/1/1 8/1/1 11/1/1
f 13/1/1 11/1/1 10/1/1
f 14/1/1 11/1/1 13/1/1
f 17/2/1 16/2/1 15/2/1
f 18/2/1 16/2/1 17/2/1
f 21/2/1 20/2/1 19/2/1
f 22/2/1 20/2/1 21/2/1
f 27/2/1 24/2/1 23/2/1
f 28/2/1 26/2/1 25/2/1
f 29/2/1 26/2/1 28/2/1
f 30/2/1 27/2/1 23/2/1
f 30/2/1 28/2/1 27/2/1
f 31/2/1 28/2/1 30/2/1
f 33/2/1 28/2/1 31/2/1
f 34/2/1 28/2/1 33/2/1
f 36/2/1 33/2/1 32/2/1
f 37/2/1 33/2/1 36/2/1
f 38/2/1 35/2/1 34/2/1
f 39/2/1 35/2/1 38/2/1
f 44/1/1 41/1/1 40/1/1
f 45/1/1 41/1/1 44/1/1
f 46/1/1 43/1/1 42/1/1
f 47/1/1 43/1/1 46/1/1
f 52/2/1 49/2/1 48/2/1
f 53/2/1 49/2/1 52/2/1
f 56/1/1 51/1/1 50/1/1
f 57/1/1 51/1/1 56/1/1
f 58/1/1 55/1/1 54/1/1
f 59/1/1 55/1/1 58/1/1
f 63/2/1 61/2/1 60/2/1
f 64/2/1 61/2/1 63/2/1
f 66/2/1 63/2/1 62/2/1
f 67/2/1 63/2/1 66/2/1
f 68/2/1 65/2/1 64/2/1
f 69/2/1 65/2/1 68/2/1
f 72/2/2 73/2/2 74/2/2
f 74/2/2 73/2/2 75/2/2
f 70/2/2 71/2/2 76/2/2
f 76/2/2 71/2/2 77/2/2
f 77/2/2 78/2/2 79/2/2
f 79/2/2 78/2/2 80/2/2
f 81/2/2 82/2/2 83/2/2
f 83/2/2 82/2/2 84/2/2
f 85/2/2 86/2/2 87/2/2
f 87/2/2 86/2/2 88/2/2
f 89/2/2 90/2/2 91/2/2
f 91/2/2 90/2/2 92/2/2
f 93/1/2 94/1/2 97/1/2
f 97/1/2 94/1/2 98/1/2
f 95/1/2 96/1/2 99/1/2
f 99/1/2 96/1/2 100/1/2
f 98/1/2 99/1/2 101/1/2
f 101/1/2 99/1/2 102/1/2
f 103/2/2 104/2/2 106/2/2
f 106/2/2 104/2/2 107/2/2
f 105/2/2 106/2/2 109/2/2
f 109/2/2 106/2/2 110/2/2
f 107/2/2 108/2/2 111/2/2
f 111/2/2 108/2/2 112/2/2
f 113/1/2 114/1/2 117/1/2
f 115/1/2 116/1/2 120/1/2
f 117/1/2 118/1/2 121/1/2
f 119/1/2 120/1/2 122/1/2
f 117/1/2 121/1/2 123/1/2
f 121/1/2 122/1/2 123/1/2
f 113/1/2 117/1/2 123/1/2
f 122/1/2 120/1/2 124/1/2
f 123/1/2 122/1/2 124/1/2
f 120/1/2 116/1/2 124/1/2
f 125/2/2 126/2/2 129/2/2
f 129/2/2 126/2/2 130/2/2
f 127/1/2 128/1/2 133/1/2
f 133/1/2 128/1/2 134/1/2
f 131/1/2 132/1/2 135/1/2
f 135/1/2 132/1/2 136/1/2
f 134/1/2 135/1/2 137/1/2
f 137/1/2 135/1/2 138/1/2
f 139/1/2 140/1/2 141/1/2
f 141/1/2 140/1/2 142/1/2
f 145/1/3 144/1/3 143/1/3
f 146/1/3 144/1/3 145/1/3
f 149/1/3 148/1/3 147/1/3
f 150/1/3 148/1/3 149/1/3
f 153/1/3 151/1/3 150/1/3
f 154/1/3 151/1/3 153/1/3
f 155/1/3 153/1/3 152/1/3
f 156/1/3 153/1/3 155/1/3
f 159/1/3 158/1/3 157/1/3
f 161/1/3 159/1/3 157/1/3
f 161/1/3 160/1/3 159/1/3
f 162/1/3 160/1/3 161/1/3
f 167/2/3 164/2/3 163/2/3
f 168/2/3 164/2/3 167/2/3
f 170/2/3 166/2/3 165/2/3
f 171/2/3 166/2/3 170/2/3
f 172/1/3 170/1/3 169/1/3
f 172/1/3 171/1/3 170/1/3
f 173/1/3 171/1/3 172/1/3
f 176/2/3 175/2/3 174/2/3
f 177/2/3 175/2/3 176/2/3
f 181/1/3 179/1/3 178/1/3
f 182/1/3 179/1/3 181/1/3
f 183/1/3 181/1/3 180/1/3
f 184/1/3 181/1/3 183/1/3
f 189/2/3 186/2/3 185/2/3
f 190/2/3 186/2/3 189/2/3
f 192/2/3 188/2/3 187/2/3
f 193/2/3 188/2/3 192/2/3
f 195/2/3 192/2/3 191/2/3
f 196/2/3 192/2/3 195/2/3
f 197/2/3 192/2/3 196/2/3
f 198/2/3 192/2/3 197/2/3
f 199/2/3 192/2/3 198/2/3
f 200/2/3 195/2/3 194/2/3
f 201/2/3 195/2/3 200/2/3
f 204/2/3 197/2/3 196/2/3
f 205/2/3 203/2/3 202/2/3
f 206/2/3 203/2/3 205/2/3
f 207/2/3 204/2/3 196/2/3
f 207/2/3 205/2/3 204/2/3
f 208/2/3 205/2/3 207/2/3
f 209/2/3 205/2/3 208/2/3
f 210/2/3 205/2/3 209/2/3
f 212/2/3 211/2/3 210/2/3
f 213/2/3 211/2/3 212/2/3
f 214/2/4 215/2/4 218/2/4
f 218/2/4 215/2/4 219/2/4
f 216/2/4 217/2/4 220/2/4
f 220/2/4 217/2/4 221/2/4
f 219/2/4 220/2/4 223/2/4
f 223/2/4 220/2/4 224/2/4
f 224/2/4 220/2/4 225/2/4
f 225/2/4 220/2/4 226/2/4
f 226/2/4 220/2/4 227/2/4
f 227/2/4 220/2/4 228/2/4
f 222/2/4 223/2/4 229/2/4
f 223/2/4 224/2/4 229/2/4
f 229/2/4 224/2/4 230/2/4
f 225/2/4 226/2/4 233/2/4
f 231/2/4 232/2/4 234/2/4
f 234/2/4 232/2/4 235/2/4
f 225/2/4 233/2/4 236/2/4
f 233/2/4 234/2/4 236/2/4
f 236/2/4 234/2/4 237/2/4
f 237/2/4 234/2/4 238/2/4
f 238/2/4 234/2/4 239/2/4
f 239/2/4 240/2/4 241/2/4
f 241/2/4 240/2/4 242/2/4
f 243/2/4 244/2/4 247/2/4
f 247/2/4 244/2/4 248/2/4
f 245/2/4 246/2/4 250/2/4
f 250/2/4 246/2/4 251/2/4
f 249/1/4 250/1/4 252/1/4
f 250/1/4 251/1/4 252/1/4
f 252/1/4 251/1/4 253/1/4
f 254/2/4 255/2/4 256/2/4
f 256/2/4 255/2/4 257/2/4
f 258/1/4 259/1/4 261/1/4
f 261/1/4 259/1/4 262/1/4
f 260/1/4 261/1/4 263/1/4
f 263/1/4 261/1/4 264/1/4
f 265/1/4 266/1/4 267/1/4
f 265/1/4 267/1/4 269/1/4
f 267/1/4 268/1/4 269/1/4
f 269/1/4 268/1/4 270/1/4
f 271/1/4 272/1/4 273/1/4
f 273/1/4 272/1/4 274/1/4
f 274/1/4 275/1/4 277/1/4
f 277/1/4 275/1/4 278/1/4
f 276/1/4 277/1/4 279/1/4
f 279/1/4 277/1/4 280/1/4
f 281/1/4 282/1/4 283/1/4
f 283/1/4 282/1/4 284/1/4
f 288/2/5 286/2/5 285/2/5
f 289/2/5 286/2/5 288/2/5
f 291/2/5 288/2/5 287/2/5
f 291/2/5 290/2/5 289/2/5
f 291/2/5 289/2/5 288/2/5
f 292/2/5 290/2/5 291/2/5
f 293/2/5 290/2/5 292/2/5
f 294/2/5 290/2/5 293/2/5
f 295/2/5 293/2/5 292/2/5
f 296/2/5 293/2/5 295/2/5
f 299/2/5 298/2/5 297/2/5
f 300/2/5 298/2/5 299/2/5
f 303/2/5 302/2/5 301/2/5
f 304/2/5 302/2/5 303/2/5
f 308/2/5 306/2/5 305/2/5
f 309/2/5 306/2/5 308/2/5
f 311/2/5 308/2/5 307/2/5
f 312/2/5 308/2/5 311/2/5
f 313/2/5 310/2/5 309/2/5
f 314/2/5 310/2/5 313/2/5
f 315/2/5 313/2/5 312/2/5
f 316/2/5 313/2/5 315/2/5
f 320/1/5 318/1/5 317/1/5
f 321/1/5 318/1/5 320/1/5
f 322/1/5 318/1/5 321/1/5
f 323/1/5 318/1/5 322/1/5
f 325/1/5 320/1/5 319/1/5
f 325/1/5 321/1/5 320/1/5
f 326/1/5 321/1/5 325/1/5
f 327/1/5 321/1/5 326/1/5
f 328/1/5 324/1/5 323/1/5
f 328/1/5 323/1/5 322/1/5
f 329/1/5 324/1/5 328/1/5
f 330/1/5 326/1/5 325/1/5
f 331/1/5 326/1/5 330/1/5
f 334/1/5 324/1/5 329/1/5
f 335/1/5 332/1/5 331/1/5
f 335/1/5 331/1/5 330/1/5
f 336/1/5 332/1/5 335/1/5
f 337/1/5 332/1/5 336/1/5
f 338/1/5 334/1/5 333/1/5
f 339/1/5 324/1/5 334/1/5
f 339/1/5 334/1/5 338/1/5
f 340/1/5 324/1/5 339/1/5
f 341/1/5 337/1/5 336/1/5
f 341/1/5 338/1/5 337/1/5
f 341/1/5 339/1/5 338/1/5
f 342/1/5 339/1/5 341/1/5
f 346/2/5 344/2/5 343/2/5
f 347/2/5 344/2/5 346/2/5
f 348/2/5 346/2/5 345/2/5
f 349/2/5 346/2/5 348/2/5
f 351/2/5 350/2/5 349/2/5
f 352/2/5 350/2/5 351/2/5
f 356/1/5 354/1/5 353/1/5
f 357/1/5 354/1/5 356/1/5
f 359/1/5 356/1/5 355/1/5
f 359/1/5 358/1/5 357/1/5
f 359/1/5 357/1/5 356/1/5
f 360/1/5 358/1/5 359/1/5
f 361/1/5 359/1/5 355/1/5
f 362/1/5 359/1/5 361/1/5
f 363/1/5 359/1/5 362/1/5
f 364/1/5 361/1/5 355/1/5
f 365/1/5 361/1/5 364/1/5
f 366/1/5 364/1/5 355/1/5
f 368/1/5 367/1/5 366/1/5
f 371/1/5 369/1/5 368/1/5
f 371/1/5 370/1/5 369/1/5
f 373/1/5 371/1/5 368/1/5
f 373/1/5 372/1/5 371/1/5
f 373/1/5 366/1/5 355/1/5
f 373/1/5 368/1/5 366/1/5
f 374/1/5 372/1/5 373/1/5
f 375/1/5 372/1/5 374/1/5
f 376/1/5 372/1/5 375/1/5
f 377/1/5 375/1/5 374/1/5
f 378/1/5 375/1/5 377/1/5
f 379/2/6 380/2/6 381/2/6
f 381/2/6 380/2/6 382/2/6
f 382/2/6 383/2/6 384/2/6
f 384/2/6 383/2/6 385/2/6
f 386/2/6 387/2/6 388/2/6
f 388/2/6 387/2/6 389/2/6
f 389/2/6 390/2/6 391/2/6
f 391/2/6 390/2/6 392/2/6
f 393/2/6 394/2/6 395/2/6
f 395/2/6 394/2/6 396/2/6
f 397/1/6 398/1/6 399/1/6
f 399/1/6 398/1/6 400/1/6
f 400/1/6 401/1/6 403/1/6
f 403/1/6 401/1/6 404/1/6
f 402/1/6 403/1/6 405/1/6
f 405/1/6 403/1/6 406/1/6
f 407/1/6 408/1/6 409/1/6
f 409/1/6 408/1/6 410/1/6
f 411/1/6 412/1/6 414/1/6
f 414/1/6 412/1/6 415/1/6
f 413/1/6 414/1/6 417/1/6
f 417/1/6 414/1/6 418/1/6
f 415/1/6 416/1/6 419/1/6
f 419/1/6 416/1/6 420/1/6
f 418/1/6 419/1/6 421/1/6
f 421/1/6 419/1/6 422/1/6
f 423/1/6 424/1/6 425/1/6
f 425/1/6 424/1/6 426/1/6
