# MagicaVoxel @ Ephtracy

# group
o 

# material
mtllib Farm House-2.mtl
usemtl palette

# normals
vn -1 0 0
vn 1 0 0
vn 0 0 1
vn 0 0 -1
vn 0 -1 0
vn 0 1 0

# texcoords
vt 0.849609 0.5
vt 0.853516 0.5
vt 0.857422 0.5
vt 0.861328 0.5
vt 0.919922 0.5
vt 0.943359 0.5
vt 0.958984 0.5

# verts
v -0.8 0.8 1.2
v -0.8 0.8 1.1
v -0.8 0.8 1
v -0.8 0.8 0.9
v -0.8 0.8 0.8
v -0.8 0.8 0.2
v -0.8 0.9 1.1
v -0.8 0.9 1
v -0.8 1 1.2
v -0.8 1 0.9
v -0.8 1.5 0.8
v -0.8 1.5 0.2
v -0.7 1 1.2
v -0.7 1 1.1
v -0.7 1.1 1.2
v -0.7 1.1 1.1
v -0.6 0.8 1.2
v -0.6 0.8 1.1
v -0.6 0.8 1
v -0.6 0.8 0.9
v -0.6 0.9 1.2
v -0.6 0.9 1.1
v -0.6 0.9 1
v -0.6 0.9 0.9
v 0.2 0.8 1.1
v 0.2 0.8 0.2
v 0.2 0.9 1
v 0.2 0.9 0.4
v 0.2 0.9 0.3
v 0.2 1 1.1
v 0.2 1 1
v 0.2 1 0.4
v 0.2 1 0.3
v 0.2 1.2 0.3
v 0.2 1.2 0.2
v 0.3 1 1
v 0.3 1 0.4
v 0.3 1 0.3
v 0.3 1.1 1
v 0.3 1.1 0.4
v 0.3 1.1 0.3
v 0.3 1.2 0.3
v 0.3 1.2 0.2
v 0.3 1.3 0.3
v 0.3 1.3 0.2
v -0.7 0.8 1.2
v -0.7 0.8 1.1
v -0.7 0.8 1
v -0.7 0.8 0.9
v -0.7 0.9 1.2
v -0.7 0.9 1.1
v -0.7 0.9 1
v -0.7 0.9 0.9
v -0.7 0.9 0.5
v -0.7 0.9 0.4
v -0.7 1 0.5
v -0.7 1 0.4
v -0.7 1 0.3
v -0.7 1.1 0.4
v -0.7 1.1 0.3
v -0.7 1.2 0.7
v -0.7 1.2 0.6
v -0.7 1.3 0.6
v -0.7 1.3 0.5
v -0.7 1.3 0.4
v -0.7 1.3 0.3
v -0.7 1.4 0.7
v -0.7 1.4 0.5
v -0.7 1.4 0.4
v -0.7 1.4 0.3
v -0.6 1 1.2
v -0.6 1 1.1
v -0.6 1.1 1.2
v -0.6 1.1 1.1
v -0.5 0.8 1.2
v -0.5 0.8 1.1
v -0.5 0.8 1
v -0.5 0.8 0.9
v -0.5 0.8 0.8
v -0.5 0.8 0.2
v -0.5 0.9 1.1
v -0.5 0.9 1
v -0.5 0.9 0.7
v -0.5 0.9 0.6
v -0.5 0.9 0.5
v -0.5 0.9 0.4
v -0.5 0.9 0.3
v -0.5 1 1.2
v -0.5 1 0.9
v -0.5 1 0.5
v -0.5 1 0.4
v -0.5 1 0.3
v -0.5 1.1 0.7
v -0.5 1.1 0.6
v -0.5 1.1 0.5
v -0.5 1.1 0.4
v -0.5 1.1 0.3
v -0.5 1.2 0.7
v -0.5 1.2 0.6
v -0.5 1.2 0.5
v -0.5 1.2 0.3
v -0.5 1.3 0.6
v -0.5 1.3 0.5
v -0.5 1.3 0.4
v -0.5 1.3 0.3
v -0.5 1.4 0.7
v -0.5 1.4 0.5
v -0.5 1.4 0.4
v -0.5 1.4 0.3
v -0.5 1.5 0.8
v -0.5 1.5 0.2
v 0.6 1 1
v 0.6 1 0.4
v 0.6 1 0.3
v 0.6 1.1 1
v 0.6 1.1 0.4
v 0.6 1.1 0.3
v 0.6 1.2 0.3
v 0.6 1.2 0.2
v 0.6 1.3 0.3
v 0.6 1.3 0.2
v 0.7 0.8 1.1
v 0.7 0.8 0.2
v 0.7 0.9 1
v 0.7 0.9 0.4
v 0.7 0.9 0.3
v 0.7 1 1.1
v 0.7 1 1
v 0.7 1 0.4
v 0.7 1 0.3
v 0.7 1.2 0.3
v 0.7 1.2 0.2
v -0.8 0.8 1.2
v -0.8 1 1.2
v -0.7 0.8 1.2
v -0.7 0.9 1.2
v -0.7 1 1.2
v -0.7 1.1 1.2
v -0.6 0.8 1.2
v -0.6 0.9 1.2
v -0.6 1 1.2
v -0.6 1.1 1.2
v -0.5 0.8 1.2
v -0.5 1 1.2
v 0.2 0.8 1.1
v 0.2 1 1.1
v 0.7 0.8 1.1
v 0.7 1 1.1
v -0.8 0.8 1
v -0.8 0.9 1
v -0.7 0.8 1
v -0.7 0.9 1
v -0.6 0.8 1
v -0.6 0.9 1
v -0.5 0.8 1
v -0.5 0.9 1
v 0.3 1 1
v 0.3 1.1 1
v 0.6 1 1
v 0.6 1.1 1
v -0.8 0.8 0.8
v -0.8 1.5 0.8
v -0.5 0.8 0.8
v -0.5 1.5 0.8
v -0.7 1.2 0.6
v -0.7 1.3 0.6
v -0.5 1.2 0.6
v -0.5 1.3 0.6
v -0.7 1.3 0.5
v -0.7 1.4 0.5
v -0.5 1.3 0.5
v -0.5 1.4 0.5
v -0.7 0.9 0.4
v -0.7 1 0.4
v -0.5 0.9 0.4
v -0.5 1 0.4
v -0.7 1 0.3
v -0.7 1.1 0.3
v -0.7 1.3 0.3
v -0.7 1.4 0.3
v -0.5 1 0.3
v -0.5 1.1 0.3
v -0.5 1.3 0.3
v -0.5 1.4 0.3
v 0.2 1 0.3
v 0.2 1.2 0.3
v 0.3 1 0.3
v 0.3 1.1 0.3
v 0.3 1.2 0.3
v 0.3 1.3 0.3
v 0.6 1 0.3
v 0.6 1.1 0.3
v 0.6 1.2 0.3
v 0.6 1.3 0.3
v 0.7 1 0.3
v 0.7 1.2 0.3
v -0.8 0.8 1.1
v -0.8 0.9 1.1
v -0.7 0.8 1.1
v -0.7 0.9 1.1
v -0.7 1 1.1
v -0.7 1.1 1.1
v -0.6 0.8 1.1
v -0.6 0.9 1.1
v -0.6 1 1.1
v -0.6 1.1 1.1
v -0.5 0.8 1.1
v -0.5 0.9 1.1
v -0.8 0.8 0.9
v -0.8 1 0.9
v -0.7 0.8 0.9
v -0.7 0.9 0.9
v -0.6 0.8 0.9
v -0.6 0.9 0.9
v -0.5 0.8 0.9
v -0.5 1 0.9
v -0.7 1.2 0.7
v -0.7 1.4 0.7
v -0.5 1.2 0.7
v -0.5 1.4 0.7
v -0.7 0.9 0.5
v -0.7 1 0.5
v -0.5 0.9 0.5
v -0.5 1 0.5
v -0.7 1 0.4
v -0.7 1.1 0.4
v -0.7 1.3 0.4
v -0.7 1.4 0.4
v -0.5 1 0.4
v -0.5 1.1 0.4
v -0.5 1.3 0.4
v -0.5 1.4 0.4
v -0.8 0.8 0.2
v -0.8 1.5 0.2
v -0.5 0.8 0.2
v -0.5 1.5 0.2
v 0.2 0.8 0.2
v 0.2 1.2 0.2
v 0.3 1.2 0.2
v 0.3 1.3 0.2
v 0.6 1.2 0.2
v 0.6 1.3 0.2
v 0.7 0.8 0.2
v 0.7 1.2 0.2
v -0.8 0.8 1.2
v -0.7 0.8 1.2
v -0.6 0.8 1.2
v -0.5 0.8 1.2
v -0.8 0.8 1.1
v -0.7 0.8 1.1
v -0.6 0.8 1.1
v -0.5 0.8 1.1
v 0.2 0.8 1.1
v 0.7 0.8 1.1
v -0.8 0.8 1
v -0.7 0.8 1
v -0.6 0.8 1
v -0.5 0.8 1
v -0.8 0.8 0.9
v -0.7 0.8 0.9
v -0.6 0.8 0.9
v -0.5 0.8 0.9
v -0.8 0.8 0.8
v -0.5 0.8 0.8
v -0.8 0.8 0.2
v -0.5 0.8 0.2
v 0.2 0.8 0.2
v 0.7 0.8 0.2
v -0.7 0.9 1.2
v -0.6 0.9 1.2
v -0.8 0.9 1.1
v -0.7 0.9 1.1
v -0.6 0.9 1.1
v -0.5 0.9 1.1
v -0.8 0.9 1
v -0.7 0.9 1
v -0.6 0.9 1
v -0.5 0.9 1
v -0.7 0.9 0.9
v -0.6 0.9 0.9
v -0.7 1 0.5
v -0.5 1 0.5
v -0.7 1 0.4
v -0.5 1 0.4
v -0.7 1.1 0.4
v -0.5 1.1 0.4
v -0.7 1.1 0.3
v -0.5 1.1 0.3
v -0.7 1.4 0.7
v -0.5 1.4 0.7
v -0.7 1.4 0.5
v -0.5 1.4 0.5
v -0.7 1.4 0.4
v -0.5 1.4 0.4
v -0.7 1.4 0.3
v -0.5 1.4 0.3
v -0.7 0.9 0.5
v -0.5 0.9 0.5
v -0.7 0.9 0.4
v -0.5 0.9 0.4
v -0.8 1 1.2
v -0.7 1 1.2
v -0.6 1 1.2
v -0.5 1 1.2
v -0.7 1 1.1
v -0.6 1 1.1
v 0.2 1 1.1
v 0.7 1 1.1
v 0.2 1 1
v 0.3 1 1
v 0.6 1 1
v 0.7 1 1
v -0.8 1 0.9
v -0.5 1 0.9
v -0.7 1 0.4
v -0.5 1 0.4
v 0.2 1 0.4
v 0.3 1 0.4
v 0.6 1 0.4
v 0.7 1 0.4
v -0.7 1 0.3
v -0.5 1 0.3
v 0.2 1 0.3
v 0.3 1 0.3
v 0.6 1 0.3
v 0.7 1 0.3
v -0.7 1.1 1.2
v -0.6 1.1 1.2
v -0.7 1.1 1.1
v -0.6 1.1 1.1
v 0.3 1.1 1
v 0.6 1.1 1
v 0.3 1.1 0.4
v 0.6 1.1 0.4
v 0.3 1.1 0.3
v 0.6 1.1 0.3
v -0.7 1.2 0.7
v -0.5 1.2 0.7
v -0.7 1.2 0.6
v -0.5 1.2 0.6
v 0.2 1.2 0.3
v 0.3 1.2 0.3
v 0.6 1.2 0.3
v 0.7 1.2 0.3
v 0.2 1.2 0.2
v 0.3 1.2 0.2
v 0.6 1.2 0.2
v 0.7 1.2 0.2
v -0.7 1.3 0.6
v -0.5 1.3 0.6
v -0.7 1.3 0.5
v -0.5 1.3 0.5
v -0.7 1.3 0.4
v -0.5 1.3 0.4
v -0.7 1.3 0.3
v -0.5 1.3 0.3
v 0.3 1.3 0.3
v 0.6 1.3 0.3
v 0.3 1.3 0.2
v 0.6 1.3 0.2
v -0.8 1.5 0.8
v -0.5 1.5 0.8
v -0.8 1.5 0.2
v -0.5 1.5 0.2

# faces
f 7/6/1 2/6/1 1/6/1
f 8/6/1 4/6/1 3/6/1
f 9/6/1 7/6/1 1/6/1
f 9/6/1 8/6/1 7/6/1
f 10/6/1 4/6/1 8/6/1
f 10/6/1 8/6/1 9/6/1
f 11/6/1 6/6/1 5/6/1
f 12/6/1 6/6/1 11/6/1
f 15/5/1 14/5/1 13/5/1
f 16/5/1 14/5/1 15/5/1
f 21/6/1 18/6/1 17/6/1
f 22/6/1 18/6/1 21/6/1
f 23/6/1 20/6/1 19/6/1
f 24/6/1 20/6/1 23/6/1
f 27/6/1 26/6/1 25/6/1
f 28/6/1 26/6/1 27/6/1
f 29/6/1 26/6/1 28/6/1
f 30/6/1 27/6/1 25/6/1
f 31/1/1 28/1/1 27/1/1
f 31/6/1 27/6/1 30/6/1
f 32/7/1 29/7/1 28/7/1
f 32/1/1 28/1/1 31/1/1
f 33/6/1 26/6/1 29/6/1
f 33/7/1 29/7/1 32/7/1
f 34/6/1 26/6/1 33/6/1
f 35/6/1 26/6/1 34/6/1
f 39/1/1 37/1/1 36/1/1
f 40/7/1 38/7/1 37/7/1
f 40/1/1 37/1/1 39/1/1
f 41/7/1 38/7/1 40/7/1
f 44/6/1 43/6/1 42/6/1
f 45/6/1 43/6/1 44/6/1
f 46/6/2 47/6/2 50/6/2
f 50/6/2 47/6/2 51/6/2
f 48/6/2 49/6/2 52/6/2
f 52/6/2 49/6/2 53/6/2
f 54/6/2 55/6/2 56/6/2
f 56/6/2 55/6/2 57/6/2
f 57/6/2 58/6/2 59/6/2
f 59/6/2 58/6/2 60/6/2
f 61/6/2 62/6/2 63/6/2
f 61/6/2 63/6/2 67/6/2
f 63/6/2 64/6/2 67/6/2
f 67/6/2 64/6/2 68/6/2
f 65/6/2 66/6/2 69/6/2
f 69/6/2 66/6/2 70/6/2
f 71/5/2 72/5/2 73/5/2
f 73/5/2 72/5/2 74/5/2
f 75/6/2 76/6/2 81/6/2
f 77/6/2 78/6/2 82/6/2
f 79/6/2 80/6/2 83/6/2
f 83/6/2 80/6/2 84/6/2
f 84/6/2 80/6/2 85/6/2
f 85/6/2 80/6/2 86/6/2
f 86/6/2 80/6/2 87/6/2
f 81/6/2 82/6/2 88/6/2
f 75/6/2 81/6/2 88/6/2
f 82/6/2 78/6/2 89/6/2
f 88/6/2 82/6/2 89/6/2
f 84/3/2 85/3/2 90/3/2
f 86/4/2 87/4/2 91/4/2
f 87/6/2 80/6/2 92/6/2
f 91/4/2 87/4/2 92/4/2
f 79/6/2 83/6/2 93/6/2
f 83/2/2 84/2/2 93/2/2
f 84/3/2 90/3/2 94/3/2
f 93/2/2 84/2/2 94/2/2
f 90/4/2 91/4/2 95/4/2
f 94/3/2 90/3/2 95/3/2
f 95/4/2 91/4/2 96/4/2
f 92/6/2 80/6/2 97/6/2
f 93/6/2 94/6/2 98/6/2
f 96/6/2 97/6/2 98/6/2
f 79/6/2 93/6/2 98/6/2
f 95/6/2 96/6/2 98/6/2
f 94/6/2 95/6/2 98/6/2
f 98/6/2 97/6/2 99/6/2
f 99/6/2 97/6/2 100/6/2
f 97/6/2 80/6/2 101/6/2
f 100/6/2 97/6/2 101/6/2
f 99/4/2 100/4/2 102/4/2
f 100/3/2 101/3/2 103/3/2
f 102/4/2 100/4/2 103/4/2
f 103/3/2 101/3/2 104/3/2
f 101/6/2 80/6/2 105/6/2
f 104/3/2 101/3/2 105/3/2
f 79/6/2 98/6/2 106/6/2
f 103/4/2 104/4/2 107/4/2
f 107/4/2 104/4/2 108/4/2
f 105/6/2 80/6/2 109/6/2
f 79/6/2 106/6/2 110/6/2
f 108/6/2 109/6/2 110/6/2
f 107/6/2 108/6/2 110/6/2
f 106/6/2 107/6/2 110/6/2
f 109/6/2 80/6/2 111/6/2
f 110/6/2 109/6/2 111/6/2
f 112/1/2 113/1/2 115/1/2
f 113/7/2 114/7/2 116/7/2
f 115/1/2 113/1/2 116/1/2
f 116/7/2 114/7/2 117/7/2
f 118/6/2 119/6/2 120/6/2
f 120/6/2 119/6/2 121/6/2
f 122/6/2 123/6/2 124/6/2
f 124/6/2 123/6/2 125/6/2
f 125/6/2 123/6/2 126/6/2
f 122/6/2 124/6/2 127/6/2
f 124/1/2 125/1/2 128/1/2
f 127/6/2 124/6/2 128/6/2
f 125/7/2 126/7/2 129/7/2
f 128/1/2 125/1/2 129/1/2
f 126/6/2 123/6/2 130/6/2
f 129/7/2 126/7/2 130/7/2
f 130/6/2 123/6/2 131/6/2
f 131/6/2 123/6/2 132/6/2
f 135/6/3 134/6/3 133/6/3
f 136/6/3 134/6/3 135/6/3
f 137/6/3 134/6/3 136/6/3
f 140/6/3 137/6/3 136/6/3
f 141/5/3 138/5/3 137/5/3
f 141/6/3 137/6/3 140/6/3
f 142/5/3 138/5/3 141/5/3
f 143/6/3 140/6/3 139/6/3
f 143/6/3 141/6/3 140/6/3
f 144/6/3 141/6/3 143/6/3
f 147/6/3 146/6/3 145/6/3
f 148/6/3 146/6/3 147/6/3
f 151/6/3 150/6/3 149/6/3
f 152/6/3 150/6/3 151/6/3
f 155/6/3 154/6/3 153/6/3
f 156/6/3 154/6/3 155/6/3
f 159/1/3 158/1/3 157/1/3
f 160/1/3 158/1/3 159/1/3
f 163/6/3 162/6/3 161/6/3
f 164/6/3 162/6/3 163/6/3
f 167/4/3 166/4/3 165/4/3
f 168/4/3 166/4/3 167/4/3
f 171/4/3 170/4/3 169/4/3
f 172/4/3 170/4/3 171/4/3
f 175/4/3 174/4/3 173/4/3
f 176/4/3 174/4/3 175/4/3
f 181/6/3 178/6/3 177/6/3
f 182/6/3 178/6/3 181/6/3
f 183/6/3 180/6/3 179/6/3
f 184/6/3 180/6/3 183/6/3
f 187/6/3 186/6/3 185/6/3
f 188/6/3 186/6/3 187/6/3
f 189/6/3 186/6/3 188/6/3
f 192/6/3 190/6/3 189/6/3
f 192/6/3 189/6/3 188/6/3
f 193/6/3 190/6/3 192/6/3
f 194/6/3 190/6/3 193/6/3
f 195/6/3 192/6/3 191/6/3
f 195/6/3 193/6/3 192/6/3
f 196/6/3 193/6/3 195/6/3
f 197/6/4 198/6/4 199/6/4
f 199/6/4 198/6/4 200/6/4
f 201/5/4 202/5/4 205/5/4
f 205/5/4 202/5/4 206/5/4
f 203/6/4 204/6/4 207/6/4
f 207/6/4 204/6/4 208/6/4
f 209/6/4 210/6/4 211/6/4
f 211/6/4 210/6/4 212/6/4
f 212/6/4 210/6/4 214/6/4
f 213/6/4 214/6/4 215/6/4
f 214/6/4 210/6/4 216/6/4
f 215/6/4 214/6/4 216/6/4
f 217/6/4 218/6/4 219/6/4
f 219/6/4 218/6/4 220/6/4
f 221/3/4 222/3/4 223/3/4
f 223/3/4 222/3/4 224/3/4
f 225/4/4 226/4/4 229/4/4
f 229/4/4 226/4/4 230/4/4
f 227/4/4 228/4/4 231/4/4
f 231/4/4 228/4/4 232/4/4
f 233/6/4 234/6/4 235/6/4
f 235/6/4 234/6/4 236/6/4
f 237/6/4 238/6/4 239/6/4
f 237/6/4 239/6/4 241/6/4
f 239/6/4 240/6/4 241/6/4
f 241/6/4 240/6/4 242/6/4
f 237/6/4 241/6/4 243/6/4
f 243/6/4 241/6/4 244/6/4
f 249/6/5 246/6/5 245/6/5
f 250/6/5 246/6/5 249/6/5
f 251/6/5 248/6/5 247/6/5
f 252/6/5 248/6/5 251/6/5
f 259/6/5 256/6/5 255/6/5
f 260/6/5 256/6/5 259/6/5
f 261/6/5 258/6/5 257/6/5
f 262/6/5 258/6/5 261/6/5
f 265/6/5 264/6/5 263/6/5
f 266/6/5 264/6/5 265/6/5
f 267/6/5 254/6/5 253/6/5
f 268/6/5 254/6/5 267/6/5
f 272/6/5 270/6/5 269/6/5
f 273/6/5 270/6/5 272/6/5
f 275/6/5 272/6/5 271/6/5
f 275/6/5 274/6/5 273/6/5
f 275/6/5 273/6/5 272/6/5
f 276/6/5 274/6/5 275/6/5
f 277/6/5 274/6/5 276/6/5
f 278/6/5 274/6/5 277/6/5
f 279/6/5 277/6/5 276/6/5
f 280/6/5 277/6/5 279/6/5
f 283/4/5 282/4/5 281/4/5
f 284/4/5 282/4/5 283/4/5
f 287/6/5 286/6/5 285/6/5
f 288/6/5 286/6/5 287/6/5
f 291/6/5 290/6/5 289/6/5
f 292/6/5 290/6/5 291/6/5
f 295/6/5 294/6/5 293/6/5
f 296/6/5 294/6/5 295/6/5
f 297/6/6 298/6/6 299/6/6
f 299/6/6 298/6/6 300/6/6
f 301/6/6 302/6/6 305/6/6
f 303/6/6 304/6/6 306/6/6
f 307/6/6 308/6/6 309/6/6
f 309/6/6 308/6/6 310/6/6
f 310/6/6 308/6/6 311/6/6
f 311/6/6 308/6/6 312/6/6
f 301/6/6 305/6/6 313/6/6
f 305/6/6 306/6/6 313/6/6
f 306/6/6 304/6/6 314/6/6
f 313/6/6 306/6/6 314/6/6
f 309/1/6 310/1/6 317/1/6
f 317/1/6 310/1/6 318/1/6
f 311/1/6 312/1/6 319/1/6
f 319/1/6 312/1/6 320/1/6
f 315/4/6 316/4/6 321/4/6
f 321/4/6 316/4/6 322/4/6
f 317/7/6 318/7/6 323/7/6
f 323/7/6 318/7/6 324/7/6
f 319/7/6 320/7/6 325/7/6
f 325/7/6 320/7/6 326/7/6
f 327/5/6 328/5/6 329/5/6
f 329/5/6 328/5/6 330/5/6
f 331/1/6 332/1/6 333/1/6
f 333/1/6 332/1/6 334/1/6
f 333/7/6 334/7/6 335/7/6
f 335/7/6 334/7/6 336/7/6
f 337/6/6 338/6/6 339/6/6
f 339/6/6 338/6/6 340/6/6
f 341/6/6 342/6/6 345/6/6
f 345/6/6 342/6/6 346/6/6
f 343/6/6 344/6/6 347/6/6
f 347/6/6 344/6/6 348/6/6
f 349/4/6 350/4/6 351/4/6
f 351/4/6 350/4/6 352/4/6
f 353/3/6 354/3/6 355/3/6
f 355/3/6 354/3/6 356/3/6
f 357/6/6 358/6/6 359/6/6
f 359/6/6 358/6/6 360/6/6
f 361/6/6 362/6/6 363/6/6
f 363/6/6 362/6/6 364/6/6
