# MagicaVoxel @ Ephtracy

# group
o 

# material
mtllib Farm House-1.mtl
usemtl palette

# normals
vn -1 0 0
vn 1 0 0
vn 0 0 1
vn 0 0 -1
vn 0 -1 0
vn 0 1 0

# texcoords
vt 0.923828 0.5
vt 0.927734 0.5
vt 0.931641 0.5
vt 0.935547 0.5

# verts
v -0.7 1.6 -0.1
v -0.7 1.6 -0.3
v -0.7 1.6 -0.6
v -0.7 1.6 -1.1
v -0.7 1.8 -0.9
v -0.7 1.8 -1.1
v -0.7 1.9 -0.6
v -0.7 1.9 -0.9
v -0.7 2 -0.1
v -0.7 2 -0.3
v -0.6 1.6 0.4
v -0.6 1.6 -1.19209e-007
v -0.6 1.6 -0.3
v -0.6 1.6 -0.5
v -0.6 1.8 0.4
v -0.6 1.8 -1.19209e-007
v -0.6 1.8 -0.3
v -0.6 1.8 -0.5
v -0.4 1.6 -1.19209e-007
v -0.4 1.6 -0.1
v -0.4 1.8 0.8
v -0.4 1.8 0.6
v -0.4 1.8 0.2
v -0.4 1.8 -1.19209e-007
v -0.4 1.8 -0.1
v -0.4 2 0.2
v -0.4 2 -0.1
v -0.4 2.2 0.8
v -0.4 2.2 0.6
v -0.2 1.6 0.8
v -0.2 1.6 0.6
v -0.2 1.8 0.8
v -0.2 1.8 0.6
v -0.2 1.8 -0.1
v -0.2 1.8 -0.3
v -0.2 1.9 -0.1
v -0.2 1.9 -0.3
v 0.2 1.6 1
v 0.2 1.6 0.7
v 0.2 1.6 0.3
v 0.2 1.6 -1.19209e-007
v 0.2 1.6 -0.1
v 0.2 1.6 -0.3
v 0.2 1.8 0.8
v 0.2 1.8 0.7
v 0.2 1.8 0.3
v 0.2 1.8 -1.19209e-007
v 0.2 1.9 1
v 0.2 1.9 0.8
v 0.2 1.9 -0.1
v 0.2 1.9 -0.3
v 0.3 1.6 -0.4
v 0.3 1.6 -0.6
v 0.3 1.8 -0.4
v 0.3 1.8 -0.6
v -0.5 1.6 -0.9
v -0.5 1.6 -1.1
v -0.5 1.8 -0.1
v -0.5 1.8 -0.3
v -0.5 1.8 -0.9
v -0.5 1.8 -1.1
v -0.5 2 -0.1
v -0.5 2 -0.3
v -0.4 1.6 0.4
v -0.4 1.6 0.2
v -0.4 1.6 -0.3
v -0.4 1.6 -0.5
v -0.4 1.6 -0.6
v -0.4 1.6 -0.9
v -0.4 1.8 0.4
v -0.4 1.8 0.2
v -0.4 1.8 -0.3
v -0.4 1.8 -0.5
v -0.4 1.9 -0.6
v -0.4 1.9 -0.9
v -0.1 1.6 0.2
v -0.1 1.6 -0.1
v -0.1 1.9 -0.1
v -0.1 2 0.2
v -0.1 2 -0.1
v 5.96046e-008 1.6 0.8
v 5.96046e-008 1.6 0.6
v 5.96046e-008 1.6 -0.1
v 5.96046e-008 1.6 -0.3
v 5.96046e-008 1.8 0.8
v 5.96046e-008 1.8 0.6
v 5.96046e-008 1.9 -0.1
v 5.96046e-008 1.9 -0.3
v 0.2 1.8 0.7
v 0.2 1.8 0.6
v 0.2 1.9 0.8
v 0.2 1.9 0.7
v 0.2 2.2 0.8
v 0.2 2.2 0.6
v 0.4 1.6 -0.1
v 0.4 1.6 -0.3
v 0.4 1.9 -0.1
v 0.4 1.9 -0.3
v 0.5 1.6 1
v 0.5 1.6 0.7
v 0.5 1.6 0.3
v 0.5 1.6 -1.19209e-007
v 0.5 1.6 -0.4
v 0.5 1.6 -0.6
v 0.5 1.8 0.3
v 0.5 1.8 -1.19209e-007
v 0.5 1.8 -0.4
v 0.5 1.8 -0.6
v 0.5 1.9 1
v 0.5 1.9 0.7
v 0.2 1.6 1
v 0.2 1.9 1
v 0.5 1.6 1
v 0.5 1.9 1
v -0.4 1.8 0.8
v -0.4 2.2 0.8
v -0.2 1.6 0.8
v -0.2 1.8 0.8
v -0.2 2 0.8
v 5.96046e-008 1.6 0.8
v 5.96046e-008 1.8 0.8
v 5.96046e-008 2 0.8
v 0.2 1.8 0.8
v 0.2 1.9 0.8
v 0.2 2.2 0.8
v -0.6 1.6 0.4
v -0.6 1.8 0.4
v -0.4 1.6 0.4
v -0.4 1.8 0.4
v 0.2 1.6 0.3
v 0.2 1.8 0.3
v 0.5 1.6 0.3
v 0.5 1.8 0.3
v -0.4 1.6 0.2
v -0.4 1.8 0.2
v -0.4 2 0.2
v -0.1 1.6 0.2
v -0.1 2 0.2
v -0.7 1.6 -0.1
v -0.7 2 -0.1
v -0.5 1.8 -0.1
v -0.5 2 -0.1
v -0.4 1.6 -0.1
v -0.4 1.8 -0.1
v -0.1 1.6 -0.1
v -0.1 1.9 -0.1
v 5.96046e-008 1.6 -0.1
v 5.96046e-008 1.9 -0.1
v 0.2 1.6 -0.1
v 0.2 1.9 -0.1
v 0.4 1.6 -0.1
v 0.4 1.9 -0.1
v 0.3 1.6 -0.4
v 0.3 1.8 -0.4
v 0.5 1.6 -0.4
v 0.5 1.8 -0.4
v -0.7 1.6 -0.6
v -0.7 1.9 -0.6
v -0.4 1.6 -0.6
v -0.4 1.9 -0.6
v 0.2 1.6 0.7
v 0.2 1.8 0.7
v 0.2 1.9 0.7
v 0.5 1.6 0.7
v 0.5 1.9 0.7
v -0.4 1.8 0.6
v -0.4 2.2 0.6
v -0.2 1.6 0.6
v -0.2 1.8 0.6
v -0.2 2 0.6
v 5.96046e-008 1.6 0.6
v 5.96046e-008 1.8 0.6
v 5.96046e-008 2 0.6
v 0.2 1.8 0.6
v 0.2 2.2 0.6
v -0.6 1.6 -1.19209e-007
v -0.6 1.8 -1.19209e-007
v -0.4 1.6 -1.19209e-007
v -0.4 1.8 -1.19209e-007
v 0.2 1.6 -1.19209e-007
v 0.2 1.8 -1.19209e-007
v 0.5 1.6 -1.19209e-007
v 0.5 1.8 -1.19209e-007
v -0.4 1.8 -0.1
v -0.4 2 -0.1
v -0.2 1.8 -0.1
v -0.2 1.9 -0.1
v -0.1 1.9 -0.1
v -0.1 2 -0.1
v -0.7 1.6 -0.3
v -0.7 2 -0.3
v -0.6 1.6 -0.3
v -0.6 1.8 -0.3
v -0.5 1.8 -0.3
v -0.5 2 -0.3
v -0.4 1.6 -0.3
v -0.4 1.8 -0.3
v -0.2 1.8 -0.3
v -0.2 1.9 -0.3
v 5.96046e-008 1.6 -0.3
v 5.96046e-008 1.9 -0.3
v 0.2 1.6 -0.3
v 0.2 1.9 -0.3
v 0.4 1.6 -0.3
v 0.4 1.9 -0.3
v -0.6 1.6 -0.5
v -0.6 1.8 -0.5
v -0.4 1.6 -0.5
v -0.4 1.8 -0.5
v 0.3 1.6 -0.6
v 0.3 1.8 -0.6
v 0.5 1.6 -0.6
v 0.5 1.8 -0.6
v -0.7 1.8 -0.9
v -0.7 1.9 -0.9
v -0.5 1.6 -0.9
v -0.5 1.8 -0.9
v -0.4 1.6 -0.9
v -0.4 1.9 -0.9
v -0.7 1.6 -1.1
v -0.7 1.8 -1.1
v -0.5 1.6 -1.1
v -0.5 1.8 -1.1
v 0.2 1.6 1
v 0.5 1.6 1
v -0.2 1.6 0.8
v 5.96046e-008 1.6 0.8
v 0.2 1.6 0.7
v 0.5 1.6 0.7
v -0.2 1.6 0.6
v 5.96046e-008 1.6 0.6
v -0.6 1.6 0.4
v -0.4 1.6 0.4
v 0.2 1.6 0.3
v 0.5 1.6 0.3
v -0.4 1.6 0.2
v -0.1 1.6 0.2
v -0.6 1.6 -1.19209e-007
v -0.4 1.6 -1.19209e-007
v 0.2 1.6 -1.19209e-007
v 0.5 1.6 -1.19209e-007
v -0.7 1.6 -0.1
v -0.4 1.6 -0.1
v -0.1 1.6 -0.1
v 5.96046e-008 1.6 -0.1
v 0.2 1.6 -0.1
v 0.4 1.6 -0.1
v -0.7 1.6 -0.3
v -0.6 1.6 -0.3
v -0.4 1.6 -0.3
v 5.96046e-008 1.6 -0.3
v 0.2 1.6 -0.3
v 0.4 1.6 -0.3
v 0.3 1.6 -0.4
v 0.5 1.6 -0.4
v -0.6 1.6 -0.5
v -0.4 1.6 -0.5
v -0.7 1.6 -0.6
v -0.4 1.6 -0.6
v 0.3 1.6 -0.6
v 0.5 1.6 -0.6
v -0.5 1.6 -0.9
v -0.4 1.6 -0.9
v -0.7 1.6 -1.1
v -0.5 1.6 -1.1
v -0.4 1.8 0.8
v -0.2 1.8 0.8
v 5.96046e-008 1.8 0.8
v 0.2 1.8 0.8
v 0.2 1.8 0.7
v -0.4 1.8 0.6
v -0.2 1.8 0.6
v 5.96046e-008 1.8 0.6
v 0.2 1.8 0.6
v -0.6 1.8 0.4
v -0.4 1.8 0.4
v 0.2 1.8 0.3
v 0.5 1.8 0.3
v -0.4 1.8 0.2
v -0.6 1.8 -1.19209e-007
v -0.4 1.8 -1.19209e-007
v 0.2 1.8 -1.19209e-007
v 0.5 1.8 -1.19209e-007
v -0.5 1.8 -0.1
v -0.4 1.8 -0.1
v -0.2 1.8 -0.1
v -0.6 1.8 -0.3
v -0.5 1.8 -0.3
v -0.4 1.8 -0.3
v -0.2 1.8 -0.3
v 0.3 1.8 -0.4
v 0.5 1.8 -0.4
v -0.6 1.8 -0.5
v -0.4 1.8 -0.5
v 0.3 1.8 -0.6
v 0.5 1.8 -0.6
v -0.7 1.8 -0.9
v -0.5 1.8 -0.9
v -0.7 1.8 -1.1
v -0.5 1.8 -1.1
v 0.2 1.9 1
v 0.5 1.9 1
v 0.2 1.9 0.8
v 0.2 1.9 0.7
v 0.5 1.9 0.7
v -0.2 1.9 -0.1
v -0.1 1.9 -0.1
v 5.96046e-008 1.9 -0.1
v 0.2 1.9 -0.1
v 0.4 1.9 -0.1
v -0.2 1.9 -0.3
v 5.96046e-008 1.9 -0.3
v 0.2 1.9 -0.3
v 0.4 1.9 -0.3
v -0.7 1.9 -0.6
v -0.4 1.9 -0.6
v -0.7 1.9 -0.9
v -0.4 1.9 -0.9
v -0.4 2 0.2
v -0.1 2 0.2
v -0.7 2 -0.1
v -0.5 2 -0.1
v -0.4 2 -0.1
v -0.1 2 -0.1
v -0.7 2 -0.3
v -0.5 2 -0.3
v -0.4 2.2 0.8
v 0.2 2.2 0.8
v -0.4 2.2 0.6
v 0.2 2.2 0.6

# faces
f 5/1/1 4/1/1 3/1/1
f 6/1/1 4/1/1 5/1/1
f 7/1/1 5/1/1 3/1/1
f 8/1/1 5/1/1 7/1/1
f 9/1/1 2/1/1 1/1/1
f 10/1/1 2/1/1 9/1/1
f 15/1/1 12/1/1 11/1/1
f 16/1/1 12/1/1 15/1/1
f 17/1/1 14/1/1 13/1/1
f 18/1/1 14/1/1 17/1/1
f 24/1/1 20/1/1 19/1/1
f 25/1/1 20/1/1 24/1/1
f 26/1/1 24/1/1 23/1/1
f 26/1/1 25/1/1 24/1/1
f 27/1/1 25/1/1 26/1/1
f 28/4/1 22/4/1 21/4/1
f 29/4/1 22/4/1 28/4/1
f 32/2/1 31/2/1 30/2/1
f 33/2/1 31/2/1 32/2/1
f 36/1/1 35/1/1 34/1/1
f 37/1/1 35/1/1 36/1/1
f 44/1/1 39/1/1 38/1/1
f 45/1/1 39/1/1 44/1/1
f 46/1/1 41/1/1 40/1/1
f 47/1/1 41/1/1 46/1/1
f 48/1/1 44/1/1 38/1/1
f 49/1/1 44/1/1 48/1/1
f 50/1/1 43/1/1 42/1/1
f 51/1/1 43/1/1 50/1/1
f 54/1/1 53/1/1 52/1/1
f 55/1/1 53/1/1 54/1/1
f 56/1/2 57/1/2 60/1/2
f 60/1/2 57/1/2 61/1/2
f 58/1/2 59/1/2 62/1/2
f 62/1/2 59/1/2 63/1/2
f 64/1/2 65/1/2 70/1/2
f 70/1/2 65/1/2 71/1/2
f 66/1/2 67/1/2 72/1/2
f 72/1/2 67/1/2 73/1/2
f 68/1/2 69/1/2 74/1/2
f 74/1/2 69/1/2 75/1/2
f 76/1/2 77/1/2 78/1/2
f 76/1/2 78/1/2 79/1/2
f 79/1/2 78/1/2 80/1/2
f 81/2/2 82/2/2 85/2/2
f 85/2/2 82/2/2 86/2/2
f 83/1/2 84/1/2 87/1/2
f 87/1/2 84/1/2 88/1/2
f 89/4/2 90/4/2 92/4/2
f 91/4/2 92/4/2 93/4/2
f 92/4/2 90/4/2 94/4/2
f 93/4/2 92/4/2 94/4/2
f 95/1/2 96/1/2 97/1/2
f 97/1/2 96/1/2 98/1/2
f 101/1/2 102/1/2 105/1/2
f 105/1/2 102/1/2 106/1/2
f 103/1/2 104/1/2 107/1/2
f 107/1/2 104/1/2 108/1/2
f 99/1/2 100/1/2 109/1/2
f 109/1/2 100/1/2 110/1/2
f 113/1/3 112/1/3 111/1/3
f 114/1/3 112/1/3 113/1/3
f 118/4/3 116/4/3 115/4/3
f 119/4/3 116/4/3 118/4/3
f 120/2/3 118/2/3 117/2/3
f 121/3/3 119/3/3 118/3/3
f 121/2/3 118/2/3 120/2/3
f 122/4/3 116/4/3 119/4/3
f 122/3/3 119/3/3 121/3/3
f 123/4/3 122/4/3 121/4/3
f 124/4/3 122/4/3 123/4/3
f 125/4/3 116/4/3 122/4/3
f 125/4/3 122/4/3 124/4/3
f 128/1/3 127/1/3 126/1/3
f 129/1/3 127/1/3 128/1/3
f 132/1/3 131/1/3 130/1/3
f 133/1/3 131/1/3 132/1/3
f 137/1/3 135/1/3 134/1/3
f 137/1/3 136/1/3 135/1/3
f 138/1/3 136/1/3 137/1/3
f 141/1/3 140/1/3 139/1/3
f 142/1/3 140/1/3 141/1/3
f 143/1/3 141/1/3 139/1/3
f 144/1/3 141/1/3 143/1/3
f 147/1/3 146/1/3 145/1/3
f 148/1/3 146/1/3 147/1/3
f 151/1/3 150/1/3 149/1/3
f 152/1/3 150/1/3 151/1/3
f 155/1/3 154/1/3 153/1/3
f 156/1/3 154/1/3 155/1/3
f 159/1/3 158/1/3 157/1/3
f 160/1/3 158/1/3 159/1/3
f 161/1/4 162/1/4 164/1/4
f 162/1/4 163/1/4 164/1/4
f 164/1/4 163/1/4 165/1/4
f 166/4/4 167/4/4 169/4/4
f 169/4/4 167/4/4 170/4/4
f 168/2/4 169/2/4 171/2/4
f 169/3/4 170/3/4 172/3/4
f 171/2/4 169/2/4 172/2/4
f 170/4/4 167/4/4 173/4/4
f 172/3/4 170/3/4 173/3/4
f 172/4/4 173/4/4 174/4/4
f 173/4/4 167/4/4 175/4/4
f 174/4/4 173/4/4 175/4/4
f 176/1/4 177/1/4 178/1/4
f 178/1/4 177/1/4 179/1/4
f 180/1/4 181/1/4 182/1/4
f 182/1/4 181/1/4 183/1/4
f 184/1/4 185/1/4 186/1/4
f 186/1/4 185/1/4 187/1/4
f 187/1/4 185/1/4 188/1/4
f 188/1/4 185/1/4 189/1/4
f 190/1/4 191/1/4 192/1/4
f 192/1/4 191/1/4 193/1/4
f 193/1/4 191/1/4 194/1/4
f 194/1/4 191/1/4 195/1/4
f 196/1/4 197/1/4 198/1/4
f 196/1/4 198/1/4 200/1/4
f 198/1/4 199/1/4 200/1/4
f 200/1/4 199/1/4 201/1/4
f 202/1/4 203/1/4 204/1/4
f 204/1/4 203/1/4 205/1/4
f 206/1/4 207/1/4 208/1/4
f 208/1/4 207/1/4 209/1/4
f 210/1/4 211/1/4 212/1/4
f 212/1/4 211/1/4 213/1/4
f 214/1/4 215/1/4 217/1/4
f 216/1/4 217/1/4 218/1/4
f 217/1/4 215/1/4 219/1/4
f 218/1/4 217/1/4 219/1/4
f 220/1/4 221/1/4 222/1/4
f 222/1/4 221/1/4 223/1/4
f 228/1/5 225/1/5 224/1/5
f 229/1/5 225/1/5 228/1/5
f 230/2/5 227/2/5 226/2/5
f 231/2/5 227/2/5 230/2/5
f 236/1/5 233/1/5 232/1/5
f 238/1/5 236/1/5 232/1/5
f 238/1/5 237/1/5 236/1/5
f 239/1/5 237/1/5 238/1/5
f 240/1/5 235/1/5 234/1/5
f 241/1/5 235/1/5 240/1/5
f 243/1/5 237/1/5 239/1/5
f 244/1/5 237/1/5 243/1/5
f 248/1/5 243/1/5 242/1/5
f 248/1/5 244/1/5 243/1/5
f 248/1/5 245/1/5 244/1/5
f 249/1/5 245/1/5 248/1/5
f 250/1/5 245/1/5 249/1/5
f 251/1/5 245/1/5 250/1/5
f 252/1/5 247/1/5 246/1/5
f 253/1/5 247/1/5 252/1/5
f 256/1/5 250/1/5 249/1/5
f 257/1/5 250/1/5 256/1/5
f 260/1/5 255/1/5 254/1/5
f 261/1/5 255/1/5 260/1/5
f 262/1/5 259/1/5 258/1/5
f 263/1/5 259/1/5 262/1/5
f 264/1/5 262/1/5 258/1/5
f 265/1/5 262/1/5 264/1/5
f 270/4/5 269/4/5 268/4/5
f 271/4/5 267/4/5 266/4/5
f 272/4/5 267/4/5 271/4/5
f 273/4/5 270/4/5 268/4/5
f 274/4/5 270/4/5 273/4/5
f 275/1/6 276/1/6 279/1/6
f 275/1/6 279/1/6 280/1/6
f 280/1/6 279/1/6 281/1/6
f 277/1/6 278/1/6 282/1/6
f 282/1/6 278/1/6 283/1/6
f 284/1/6 285/1/6 288/1/6
f 285/1/6 286/1/6 288/1/6
f 288/1/6 286/1/6 289/1/6
f 289/1/6 286/1/6 290/1/6
f 287/1/6 288/1/6 293/1/6
f 288/1/6 289/1/6 293/1/6
f 293/1/6 289/1/6 294/1/6
f 291/1/6 292/1/6 295/1/6
f 295/1/6 292/1/6 296/1/6
f 297/1/6 298/1/6 299/1/6
f 299/1/6 298/1/6 300/1/6
f 301/1/6 302/1/6 303/1/6
f 303/1/6 302/1/6 304/1/6
f 304/1/6 302/1/6 305/1/6
f 306/1/6 307/1/6 311/1/6
f 307/1/6 308/1/6 311/1/6
f 311/1/6 308/1/6 312/1/6
f 309/1/6 310/1/6 313/1/6
f 313/1/6 310/1/6 314/1/6
f 315/1/6 316/1/6 317/1/6
f 317/1/6 316/1/6 318/1/6
f 319/1/6 320/1/6 323/1/6
f 323/1/6 320/1/6 324/1/6
f 321/1/6 322/1/6 325/1/6
f 325/1/6 322/1/6 326/1/6
f 327/4/6 328/4/6 329/4/6
f 329/4/6 328/4/6 330/4/6
